<svg width="70" height="70" viewBox="0 0 70 70" fill="none" xmlns="http://www.w3.org/2000/svg">
<path d="M35.6061 40.8101L29.181 40.3943L16.0512 51.6492L27.032 66.0864L40.7716 53.7214L42.5902 49.2434L35.6061 40.8101Z" fill="#01D0FB"/>
<path d="M41.8866 34.9999L36.8546 33.8171L29.181 40.3944L40.7716 53.7215L48.5412 46.729L49.1936 43.0795L41.8866 34.9999Z" fill="#62DBFB"/>
<path d="M51.0542 27.269L44.7846 27.019L36.8546 33.8169L48.5412 46.7288L56.3409 39.7089L58.5009 35.364L51.0542 27.269Z" fill="#99E6FC"/>
<path d="M60.7636 29.0229C62.6056 31.0596 62.4467 34.2049 60.41 36.0483L56.3409 39.709L44.7845 27.0192L52.9283 20.0391L56.4451 24.248L60.7636 29.0229Z" fill="#C8EFFE"/>
<path d="M30.3923 33.8284L23.7865 36.0978L10.9172 56.83L28.8383 64.1651L40.6044 47.1526L41.2619 40.8103L30.3923 33.8284Z" fill="#05E39C"/>
<path d="M37.4751 24.97L29.9224 26.2122L23.7865 36.0979L40.6044 47.1527L46.8637 38.1017L47.6432 31.935L37.4751 24.97Z" fill="#00F2A6"/>
<path d="M52.9728 23.9574L41.2619 16.437L35.606 17.054L29.9224 26.212L46.8637 38.1014L53.3189 28.7667L52.9728 23.9574Z" fill="#6CF5C2"/>
<path d="M55.4035 17.0103C57.6621 18.5727 58.2268 21.6701 56.6644 23.9301L53.3189 28.7667L35.606 17.0541L41.3376 7.8208L49.4485 12.8918L55.4035 17.0103Z" fill="#9CF8D2"/>
<path d="M17.9881 30.3345L8.79916 53.0961C6.4273 58.9715 9.26692 65.6559 15.1422 68.0277C21.0161 70.399 27.7019 67.56 30.0738 61.6847L39.1598 39.1779L17.9881 30.3345Z" fill="#FED402"/>
<path d="M42.3469 28.1588L26.7117 20.8435L22.054 22.2523L17.4723 33.2947L38.2679 41.3869L42.5902 30.6647L42.3469 28.1588Z" fill="#FEE45A"/>
<path d="M46.497 15.6934L29.8542 10.3579L26.3978 11.9272L22.108 22.2693L42.5975 30.6624L46.9559 19.8653L46.497 15.6934Z" fill="#FEE97D"/>
<path d="M46.5602 7.42741C49.1122 8.44572 50.3553 11.3389 49.3383 13.8909L46.9563 19.865L26.3982 11.9269L30.122 2.95123C31.4021 2.1988 33.0029 2.022 34.4899 2.61545L46.5602 7.42741Z" fill="#FEF0AE"/>
<path d="M7.9527 47.1376V35.547V23.9577V12.367V6.00225C7.9527 3.25432 10.1798 1.02856 12.9264 1.02856H25.9205C28.6684 1.02856 30.8955 3.25432 30.8955 6.00225V57.5003C30.8955 63.8363 25.7587 68.9717 19.4241 68.9717C13.0881 68.9717 7.9527 63.8363 7.9527 57.5003V47.1376Z" fill="#F9F7F8"/>
<path d="M30.8955 6.00225V12.367H7.9527V6.00225C7.9527 3.25432 10.1798 1.02856 12.9264 1.02856H25.9205C28.6684 1.02856 30.8955 3.25432 30.8955 6.00225Z" fill="#9FB41C"/>
<path d="M7.9527 12.3669H30.8955V23.9576H7.9527V12.3669Z" fill="#B1C918"/>
<path d="M7.9527 23.9575H30.8955V35.5468H7.9527V23.9575Z" fill="#9FB41C"/>
<path d="M7.9527 35.5469H30.8955V47.1375H7.9527V35.5469Z" fill="#B1C918"/>
<path d="M19.1907 61.4397C21.3454 61.4397 23.0921 59.693 23.0921 57.5383C23.0921 55.3837 21.3454 53.637 19.1907 53.637C17.036 53.637 15.2893 55.3837 15.2893 57.5383C15.2893 59.693 17.036 61.4397 19.1907 61.4397Z" fill="#E5E1E5"/>
<path d="M61.5254 28.3331L57.7423 24.149C58.4776 22.9066 58.7401 21.4585 58.4786 20.0243C58.191 18.4472 57.3065 17.0764 55.988 16.1644L50.5297 12.3894C50.5641 11.5081 50.4021 10.623 50.0436 9.78894C49.4104 8.31615 48.2417 7.17806 46.7524 6.5842L34.6816 1.77142C33.2186 1.18812 31.6245 1.20388 30.1931 1.79143C29.1041 0.686503 27.5914 0 25.921 0H12.9262C9.6168 0 6.92438 2.69242 6.92438 6.00186V57.5008C6.92438 64.393 12.5315 70 19.4236 70C22.56 70 25.4301 68.8385 27.6269 66.9234C27.6584 66.9009 27.6893 66.8771 27.7187 66.8506L51.1199 45.7908C51.5417 45.411 51.576 44.7611 51.1963 44.3391C50.8164 43.917 50.1661 43.8829 49.7447 44.2626L48.7806 45.1303L45.6483 41.666L50.566 34.5553L55.0369 39.4999L53.0027 41.3306C52.5809 41.7104 52.5466 42.3603 52.9262 42.7823C53.1292 43.0079 53.4094 43.1226 53.6906 43.1226C53.9356 43.1226 54.1815 43.0356 54.3781 42.8588L61.0988 36.8103C62.288 35.7351 62.9871 34.2611 63.0677 32.6601C63.1483 31.059 62.6006 29.5222 61.5254 28.3331ZM56.4561 20.3929C56.6451 21.4297 56.4189 22.4783 55.8193 23.3452L53.0282 27.381L46.6738 22.9865L50.038 14.5491L54.8185 17.8554C55.6855 18.4549 56.2671 19.356 56.4561 20.3929ZM46.6859 36.5516L42.437 33.613L45.8926 24.9459L51.8587 29.0719L46.6859 36.5516ZM40.3436 45.7221L38.1999 44.2396L41.6558 35.5723L45.5164 38.2424L40.3436 45.7221ZM41.9258 29.3445L38.9467 28.1566C38.4196 27.9465 37.8217 28.2034 37.6113 28.7307C37.4011 29.2581 37.6582 29.856 38.1854 30.0663L41.1643 31.254L37.6332 40.1102L31.9229 37.8333V27.5693L34.0985 28.4368C34.2233 28.4865 34.3522 28.5101 34.4788 28.5101C34.8871 28.5101 35.2734 28.265 35.4339 27.8626C35.6442 27.3353 35.3872 26.7374 34.8599 26.5271L31.9229 25.3561V15.0921L45.4568 20.4883L41.9258 29.3445ZM29.8671 22.9291H18.2235C17.6558 22.9291 17.1956 23.3893 17.1956 23.957C17.1956 24.5247 17.6558 24.9849 18.2235 24.9849H29.8671V34.5191H8.98019V24.9849H13.8429C14.4105 24.9849 14.8708 24.5247 14.8708 23.957C14.8708 23.3893 14.4105 22.9291 13.8429 22.9291H8.98019V13.395H29.8669V22.9291H29.8671ZM8.98019 36.5749H29.8669V46.109H8.98019V36.5749ZM31.9229 40.0465L36.8719 42.0198L31.9229 54.4322V40.0465ZM38.3281 52.2507L39.468 53.5113L34.1403 58.3059L38.3281 52.2507ZM33.886 55.0595L37.4189 46.1988L39.1744 47.4128L33.886 55.0595ZM33.9203 3.68113L45.991 8.49391C46.9702 8.88424 47.7385 9.63256 48.1547 10.6008C48.441 11.2665 48.5371 11.9815 48.4424 12.6815C48.4407 12.6895 48.4399 12.6978 48.4384 12.7059C48.3946 13.0157 48.3137 13.3226 48.1947 13.6207L46.218 18.5786L31.9229 12.8788V6.00186C31.9229 5.12773 31.7335 4.29732 31.396 3.5475C32.2208 3.31437 33.1019 3.3548 33.9203 3.68113ZM12.9262 2.05581H25.921C28.0967 2.05581 29.8671 3.826 29.8671 6.00186V11.3393H8.98019V6.00186C8.98019 3.826 10.7504 2.05581 12.9262 2.05581ZM8.98019 57.5008V48.1648H29.8669V57.5008C29.8669 63.2594 25.182 67.9442 19.4236 67.9442C13.6651 67.9442 8.98019 63.2593 8.98019 57.5008ZM47.2525 46.5057L40.9961 52.136L39.5292 50.5137L44.447 43.4029L47.2525 46.5057ZM61.0145 32.5567C60.9616 33.6094 60.5019 34.5784 59.7216 35.2838L56.565 38.1247L51.7672 32.8184L56.5526 25.8989L60.0003 29.7119C60.7073 30.4938 61.0675 31.504 61.0145 32.5567Z" fill="#5889A1"/>
<path d="M19.1907 52.6091C16.4726 52.6091 14.2614 54.8204 14.2614 57.5384C14.2614 60.2565 16.4726 62.4677 19.1907 62.4677C21.9087 62.4677 24.12 60.2565 24.12 57.5384C24.12 54.8204 21.9087 52.6091 19.1907 52.6091ZM19.1907 60.412C17.6062 60.412 16.3172 59.123 16.3172 57.5385C16.3172 55.9541 17.6062 54.6651 19.1907 54.6651C20.7752 54.6651 22.0642 55.9541 22.0642 57.5385C22.0642 59.123 20.7752 60.412 19.1907 60.412Z" fill="#5889A1"/>
</svg>
