<svg width="67" height="67" viewBox="0 0 67 67" fill="none" xmlns="http://www.w3.org/2000/svg">
<g clip-path="url(#clip0)">
<path d="M12.9849 11.0061C15.7531 11.0061 17.9972 8.76197 17.9972 5.99375C17.9972 3.22553 15.7531 0.981445 12.9849 0.981445C10.2167 0.981445 7.9726 3.22553 7.9726 5.99375C7.9726 8.76197 10.2167 11.0061 12.9849 11.0061Z" fill="#EFD176"/>
<path d="M55.4528 40.6533H44.9456C43.6131 40.6533 42.5328 39.573 42.5328 38.2405V13.9904C42.5328 12.6579 43.6131 11.5776 44.9456 11.5776H55.4528C57.8825 11.5776 59.8521 13.5472 59.8521 15.9769V36.2539C59.8521 38.6836 57.8825 40.6533 55.4528 40.6533Z" fill="#E8899E"/>
<path d="M55.4528 40.6533H44.9456C43.6131 40.6533 42.5328 39.573 42.5328 38.2405V13.9904C42.5328 12.6579 43.6131 11.5776 44.9456 11.5776H55.4528C57.8825 11.5776 59.8521 13.5472 59.8521 15.9769V36.2539C59.8521 38.6836 57.8825 40.6533 55.4528 40.6533Z" fill="#E8899E"/>
<path d="M44.9456 40.6534H54.6449C50.5685 37.4513 50.347 29.8091 50.339 11.5779H44.9456C43.6131 11.5779 42.5328 12.6581 42.5328 13.9907V38.2407C42.5328 39.5732 43.6131 40.6534 44.9456 40.6534Z" fill="#DE5C6E"/>
<path d="M42.5328 21.2698H59.8521V30.9616H42.5328V21.2698Z" fill="#8EAFE2"/>
<path d="M42.5328 21.2698H59.8521V30.9616H42.5328V21.2698Z" fill="#8EAFE2"/>
<path d="M42.5328 21.2698V30.9616H50.8751C50.5972 28.344 50.4628 25.1534 50.398 21.2698H42.5328Z" fill="#6A96D7"/>
<path d="M59.8521 21.2697H42.5328V13.9907C42.5328 12.6581 43.6131 11.5779 44.9456 11.5779H55.4528C57.8825 11.5779 59.8521 13.5474 59.8521 15.9771V21.2697Z" fill="#FCF2D0"/>
<path d="M44.9456 11.5779C43.6131 11.5779 42.5328 12.6581 42.5328 13.9907V21.2697H50.3981C50.3508 18.4276 50.3406 15.2134 50.339 11.5779H44.9456Z" fill="#F6E3A3"/>
<path d="M14.0442 66.0187H11.9256C10.6928 66.0187 9.69342 65.0193 9.69342 63.7865V12.115H16.2764V63.7865C16.2764 65.0193 15.2771 66.0187 14.0442 66.0187Z" fill="#E1B89A"/>
<path d="M9.69342 12.115H16.2764V15.5866H9.69342V12.115Z" fill="#D2996F"/>
<path d="M46.2587 45.4993H16.2764V16.4238H46.2587C47.5912 16.4238 48.6714 17.5041 48.6714 18.8365V43.0865C48.6714 44.4191 47.5912 45.4993 46.2587 45.4993Z" fill="#E8899E"/>
<path d="M16.2764 45.4993H28.8152C24.7388 42.2973 24.5173 34.655 24.5093 16.4238H16.2764V45.4993Z" fill="#DE5C6E"/>
<path d="M16.2764 26.1155H48.6713V35.8073H16.2764V26.1155Z" fill="#8EAFE2"/>
<path d="M16.2764 26.1155V35.8073H25.0465C24.7683 33.1893 24.6335 30 24.5686 26.1155H16.2764Z" fill="#6A96D7"/>
<path d="M48.6714 26.1157H16.2764V16.4238H46.2587C47.5912 16.4238 48.6714 17.5041 48.6714 18.8365V26.1157Z" fill="#FCF2D0"/>
<path d="M24.5094 16.4238H16.2766V26.1157H24.5687C24.5212 23.2733 24.511 20.0598 24.5094 16.4238Z" fill="#F6E3A3"/>
<path d="M16.53 7.69141H9.43991C8.37772 7.69141 7.46681 8.44934 7.27353 9.49373L7.17814 10.0093C6.97556 11.1043 7.81621 12.1148 8.92982 12.1148H17.04C18.1536 12.1148 18.9942 11.1045 18.7916 10.0093L18.6962 9.49373C18.5031 8.44921 17.5922 7.69141 16.53 7.69141Z" fill="#F7EF87"/>
<path d="M16.3858 22.9728H9.58416C8.67181 22.9728 7.93219 22.2332 7.93219 21.3208V21.2189C7.93219 20.3065 8.67181 19.5669 9.58416 19.5669H16.3858C17.2982 19.5669 18.0378 20.3065 18.0378 21.2189V21.3208C18.0378 22.2332 17.2982 22.9728 16.3858 22.9728Z" fill="#FCF2D0"/>
<path d="M16.3858 38.9504H9.58416C8.67181 38.9504 7.93219 39.6901 7.93219 40.6024V40.7043C7.93219 41.6167 8.67181 42.3563 9.58416 42.3563H16.3858C17.2982 42.3563 18.0378 41.6167 18.0378 40.7043V40.6024C18.0378 39.6901 17.2982 38.9504 16.3858 38.9504Z" fill="#FCF2D0"/>
<path d="M58.4721 11.5228C58.0237 11.2184 57.4134 11.335 57.1088 11.7835C56.8045 12.2319 56.9211 12.8423 57.3695 13.1468C58.3095 13.7849 58.8706 14.843 58.8706 15.977V20.2882H49.6527V18.8364C49.6527 16.9649 48.1301 15.4423 46.2585 15.4423H43.5141V13.9906C43.5141 13.2014 44.1561 12.5592 44.9455 12.5592H53.3587C53.9008 12.5592 54.3401 12.1198 54.3401 11.5778C54.3401 11.0358 53.9008 10.5963 53.3587 10.5963H44.9455C43.0739 10.5963 41.5512 12.119 41.5512 13.9906V15.4423H17.2578V13.0867C17.9988 13.0286 18.6843 12.6771 19.1641 12.1003C19.6905 11.4673 19.9066 10.6402 19.7567 9.83081L19.6613 9.31509C19.5379 8.64837 19.2117 8.06277 18.7541 7.61628C18.9021 7.09088 18.9785 6.54794 18.9785 5.99362C18.9786 2.68877 16.2899 0 12.9849 0C9.67991 0 6.99128 2.68877 6.99128 5.99375C6.99128 6.54807 7.06783 7.09101 7.2157 7.61641C6.75809 8.0629 6.43172 8.64837 6.30845 9.31509L6.21306 9.83081C6.06322 10.6403 6.2794 11.4676 6.80598 12.1004C7.28571 12.677 7.97128 13.0286 8.71195 13.0867V18.7367C7.68784 19.0977 6.95058 20.0725 6.95058 21.2186V21.3205C6.95058 22.4666 7.68784 23.4414 8.71195 23.8024V38.1204C7.68784 38.4814 6.95058 39.4562 6.95058 40.6023V40.7043C6.95058 41.8504 7.68784 42.8252 8.71195 43.1862V60.7168C8.71195 61.2588 9.15124 61.6982 9.69339 61.6982C10.2355 61.6982 10.6748 61.2588 10.6748 60.7168V43.3379H15.295V63.7864C15.295 64.476 14.734 65.0371 14.0442 65.0371H11.9256C11.5653 65.0371 11.2225 64.8815 10.9847 64.6104C10.6276 64.2028 10.0073 64.1619 9.5997 64.5193C9.1922 64.8765 9.15137 65.4967 9.50875 65.9042C10.1192 66.6006 11 67 11.9257 67H14.0443C15.8163 67 17.258 65.5583 17.258 63.7864V46.4807H46.2588C48.1303 46.4807 49.653 44.958 49.653 43.0865V41.6347H55.4531C58.4199 41.6347 60.8336 39.221 60.8336 36.2541V15.977C60.8335 14.1918 59.9507 12.5268 58.4721 11.5228ZM12.9849 1.96289C15.2074 1.96289 17.0158 3.77111 17.0158 5.99375C17.0158 6.2467 16.9916 6.49573 16.9457 6.74017C16.8091 6.72225 16.6709 6.70995 16.5299 6.70995H9.43979C9.29885 6.70995 9.16066 6.72212 9.02392 6.74017C8.97811 6.49573 8.95404 6.2467 8.95404 5.99375C8.95417 3.77111 10.7624 1.96289 12.9849 1.96289ZM17.0565 40.7045C17.0565 41.0743 16.7556 41.3751 16.3858 41.3751H9.58412C9.21432 41.3751 8.91347 41.0743 8.91347 40.7045V40.6024C8.91347 40.2327 9.21432 39.9319 9.58412 39.9319H16.3858C16.7556 39.9319 17.0565 40.2327 17.0565 40.6024V40.7045ZM10.6748 37.969V23.9542H15.295V37.969H10.6748ZM17.0565 21.3207C17.0565 21.6905 16.7556 21.9912 16.3858 21.9912H9.58412C9.21432 21.9912 8.91347 21.6903 8.91347 21.3207V21.2187C8.91347 20.8489 9.21432 20.5482 9.58412 20.5482H16.3858C16.7556 20.5482 17.0565 20.849 17.0565 21.2187V21.3207ZM10.6748 18.5852V13.0964H15.295V18.5853H10.6748V18.5852ZM17.0401 11.1335H8.92983C8.60346 11.1335 8.40443 10.9529 8.31479 10.8451C8.22515 10.7374 8.08369 10.5088 8.1431 10.1881L8.2385 9.67234C8.30576 9.30842 8.53031 9.00744 8.83404 8.83392C8.84241 8.82948 8.85118 8.82529 8.85943 8.82071C9.03321 8.72675 9.23094 8.67297 9.43979 8.67297H16.53C16.7386 8.67297 16.9361 8.72649 17.1097 8.82031C17.1186 8.82542 17.128 8.82987 17.1372 8.83458C17.4401 9.00823 17.6642 9.30894 17.7313 9.67221L17.8267 10.1881C17.8861 10.5089 17.7446 10.7375 17.655 10.8451C17.5654 10.9528 17.3665 11.1335 17.0401 11.1335ZM47.6899 43.0866C47.6899 43.8758 47.0479 44.518 46.2585 44.518H17.2578V43.1865C18.2821 42.8254 19.0193 41.8507 19.0193 40.7045V40.6024C19.0193 39.4563 18.2821 38.4816 17.2578 38.1205V36.7889H47.69V43.0866H47.6899ZM47.6899 34.826H17.2578V27.0971H47.69V34.826H47.6899ZM47.6899 25.1342H17.2578V23.8027C18.2821 23.4416 19.0193 22.4669 19.0193 21.3207V21.2187C19.0193 20.0727 18.2821 19.0979 17.2578 18.7368V17.4053H46.2586C47.0479 17.4053 47.69 18.0475 47.69 18.8367V25.1342H47.6899ZM58.8706 36.2542C58.8706 38.1387 57.3375 39.672 55.453 39.672H49.6529V31.943H58.8707V36.2542H58.8706ZM58.8706 29.9801H49.6527V22.2512H58.8706V29.9801Z" fill="#5889A1"/>
</g>
<defs>
<clipPath id="clip0">
<rect width="67" height="67" fill="white"/>
</clipPath>
</defs>
</svg>
