<svg width="76" height="76" viewBox="0 0 76 76" fill="none" xmlns="http://www.w3.org/2000/svg">
<g clip-path="url(#clip0)">
<path d="M1.03906 40.0034V56.7775C1.03906 57.4073 1.28929 58.0114 1.73468 58.4568C2.18008 58.9022 2.78417 59.1525 3.41406 59.1525H21.9688V50.4439H54.0312V59.1525H72.5859C73.2158 59.1525 73.8199 58.9022 74.2653 58.4568C74.7107 58.0114 74.9609 57.4073 74.9609 56.7775V40.0034H1.03906Z" fill="#8EBDD5"/>
<path d="M72.5859 27.0898H3.41406C2.78417 27.0898 2.18008 27.3401 1.73468 27.7855C1.28929 28.2309 1.03906 28.835 1.03906 29.4648V40.0033H74.9609V29.4648C74.9609 28.835 74.7107 28.2309 74.2653 27.7855C73.8199 27.3401 73.2158 27.0898 72.5859 27.0898Z" fill="#B1C918"/>
<path d="M35.3774 31.5181H16.9961C15.8756 31.5181 14.9672 32.4263 14.9672 33.5466C14.9672 34.667 15.8756 35.5752 16.9961 35.5752H35.3774C36.4979 35.5752 37.4062 34.667 37.4062 33.5466C37.4062 32.4263 36.4979 31.5181 35.3774 31.5181Z" fill="#D6EAFC"/>
<path d="M59.0039 31.5181H58.5343C57.4138 31.5181 56.5054 32.4263 56.5054 33.5466C56.5054 34.667 57.4138 35.5752 58.5343 35.5752H59.0039C60.1244 35.5752 61.0328 34.667 61.0328 33.5466C61.0328 32.4263 60.1244 31.5181 59.0039 31.5181Z" fill="#8EBDD5"/>
<path d="M49.6262 31.5181H49.1566C48.0361 31.5181 47.1277 32.4263 47.1277 33.5466C47.1277 34.667 48.0361 35.5752 49.1566 35.5752H49.6262C50.7467 35.5752 51.6551 34.667 51.6551 33.5466C51.6551 32.4263 50.7467 31.5181 49.6262 31.5181Z" fill="#8EBDD5"/>
<path d="M21.9688 50.4438H54.0312V69.8399H21.9688V50.4438Z" fill="#D6EAFC"/>
<path d="M14.9672 50.4438H21.9687V59.1524H14.9672V50.4438Z" fill="#9FB41C"/>
<path d="M54.0312 50.4438H61.0328V59.1524H54.0312V50.4438Z" fill="#9FB41C"/>
<path d="M21.9688 6.16016H54.0312V27.0898H21.9688V6.16016Z" fill="#D6EAFC"/>
<path d="M9.04224 17.293V27.0898H21.9688V14.918H11.4172C10.7873 14.918 10.1833 15.1682 9.73786 15.6136C9.29246 16.059 9.04224 16.6631 9.04224 17.293Z" fill="#8EBDD5"/>
<path d="M54.0312 14.918V27.0898H66.9578V17.293C66.9578 16.6631 66.7076 16.059 66.2622 15.6136C65.8168 15.1682 65.2127 14.918 64.5828 14.918H54.0312Z" fill="#8EBDD5"/>
<path d="M72.5859 26.0508H67.9968V17.293C67.9957 16.3878 67.6357 15.5201 66.9957 14.8801C66.3557 14.2401 65.4879 13.88 64.5828 13.8789H55.0703V6.16016C55.0702 5.88463 54.9606 5.62043 54.7658 5.4256C54.571 5.23077 54.3068 5.12125 54.0312 5.12109H35.2539C34.9783 5.12109 34.714 5.23057 34.5192 5.42543C34.3243 5.62029 34.2148 5.88458 34.2148 6.16016C34.2148 6.43573 34.3243 6.70002 34.5192 6.89488C34.714 7.08975 34.9783 7.19922 35.2539 7.19922H52.9922V26.0508H23.0078V7.19922H25.6055C25.881 7.19922 26.1453 7.08975 26.3402 6.89488C26.5351 6.70002 26.6445 6.43573 26.6445 6.16016C26.6445 5.88458 26.5351 5.62029 26.3402 5.42543C26.1453 5.23057 25.881 5.12109 25.6055 5.12109H21.9688C21.6932 5.12125 21.429 5.23077 21.2342 5.4256C21.0394 5.62043 20.9298 5.88463 20.9297 6.16016V13.8789H11.4172C10.5121 13.88 9.64435 14.2401 9.00433 14.8801C8.3643 15.5201 8.00426 16.3878 8.00316 17.293V26.0508H3.41406C2.50893 26.0519 1.64119 26.4119 1.00117 27.052C0.361148 27.692 0.00109989 28.5597 0 29.4648L0 56.7773C0.00109989 57.6825 0.361148 58.5502 1.00117 59.1902C1.64119 59.8303 2.50893 60.1903 3.41406 60.1914H20.9297V69.8398C20.9298 70.1154 21.0394 70.3796 21.2342 70.5744C21.429 70.7692 21.6932 70.8787 21.9688 70.8789H54.0312C54.3068 70.8787 54.571 70.7692 54.7658 70.5744C54.9606 70.3796 55.0702 70.1154 55.0703 69.8398V60.1914H72.5859C72.8615 60.1914 73.1258 60.0819 73.3207 59.8871C73.5155 59.6922 73.625 59.4279 73.625 59.1523C73.625 58.8768 73.5155 58.6125 73.3207 58.4176C73.1258 58.2228 72.8615 58.1133 72.5859 58.1133H62.0718V50.4438C62.0717 50.1683 61.9621 49.9041 61.7673 49.7093C61.5725 49.5144 61.3083 49.4049 61.0327 49.4048H14.9672C14.6917 49.4049 14.4275 49.5144 14.2327 49.7093C14.0379 49.9041 13.9283 50.1683 13.9282 50.4438V58.1133H3.41406C3.05985 58.113 2.72023 57.9721 2.46976 57.7216C2.21929 57.4712 2.07844 57.1316 2.07812 56.7773V41.043H73.9219V54.7984C73.9219 55.074 74.0313 55.3382 74.2262 55.5331C74.4211 55.728 74.6854 55.8374 74.9609 55.8374C75.2365 55.8374 75.5008 55.728 75.6957 55.5331C75.8905 55.3382 76 55.074 76 54.7984V29.4648C75.9989 28.5597 75.6389 27.692 74.9988 27.052C74.3588 26.4119 73.4911 26.0519 72.5859 26.0508ZM59.9937 58.1133H55.0703V51.4829H59.9937V58.1133ZM52.9922 59.1523V68.8008H23.0078V51.4829H52.9922V59.1523ZM16.0063 51.4829H20.9297V58.1133H16.0063V51.4829ZM55.0703 15.957H64.5828C64.937 15.9573 65.2766 16.0982 65.5271 16.3487C65.7775 16.5991 65.9184 16.9388 65.9187 17.293V26.0508H55.0703V15.957ZM10.0813 17.293C10.0816 16.9388 10.2224 16.5991 10.4729 16.3487C10.7234 16.0982 11.063 15.9573 11.4172 15.957H20.9297V26.0508H10.0813V17.293ZM2.07812 38.9642V29.4643C2.07844 29.11 2.21929 28.7704 2.46976 28.5199C2.72023 28.2695 3.05985 28.1286 3.41406 28.1283H72.5859C72.9402 28.1286 73.2798 28.2695 73.5302 28.5199C73.7807 28.7704 73.9216 29.11 73.9219 29.4643V38.9642H2.07812Z" fill="#5889A1"/>
<path d="M35.3774 30.4788H16.9961C16.5896 30.4732 16.1861 30.5483 15.809 30.7C15.4319 30.8516 15.0886 31.0766 14.7992 31.362C14.5098 31.6475 14.28 31.9875 14.1231 32.3625C13.9663 32.7375 13.8855 33.1399 13.8855 33.5464C13.8855 33.9529 13.9663 34.3553 14.1231 34.7303C14.28 35.1053 14.5098 35.4454 14.7992 35.7308C15.0886 36.0162 15.4319 36.2413 15.809 36.3929C16.1861 36.5445 16.5896 36.6197 16.9961 36.614H35.3774C35.7838 36.6197 36.1873 36.5445 36.5645 36.3929C36.9416 36.2413 37.2849 36.0162 37.5743 35.7308C37.8637 35.4454 38.0935 35.1053 38.2503 34.7303C38.4072 34.3553 38.488 33.9529 38.488 33.5464C38.488 33.1399 38.4072 32.7375 38.2503 32.3625C38.0935 31.9875 37.8637 31.6475 37.5743 31.362C37.2849 31.0766 36.9416 30.8516 36.5645 30.7C36.1873 30.5483 35.7838 30.4732 35.3774 30.4788ZM35.3774 34.5359H16.9961C16.8641 34.5391 16.7328 34.5159 16.6099 34.4677C16.4871 34.4194 16.3751 34.347 16.2806 34.2548C16.1861 34.1626 16.111 34.0524 16.0597 33.9308C16.0085 33.8091 15.9821 33.6784 15.9821 33.5464C15.9821 33.4144 16.0085 33.2837 16.0597 33.1621C16.111 33.0404 16.1861 32.9302 16.2806 32.838C16.3751 32.7458 16.4871 32.6735 16.6099 32.6252C16.7328 32.5769 16.8641 32.5537 16.9961 32.5569H35.3774C35.5094 32.5537 35.6407 32.5769 35.7635 32.6252C35.8864 32.6735 35.9984 32.7458 36.0929 32.838C36.1874 32.9302 36.2625 33.0404 36.3137 33.1621C36.365 33.2837 36.3914 33.4144 36.3914 33.5464C36.3914 33.6784 36.365 33.8091 36.3137 33.9308C36.2625 34.0524 36.1874 34.1626 36.0929 34.2548C35.9984 34.347 35.8864 34.4194 35.7635 34.4677C35.6407 34.5159 35.5094 34.5391 35.3774 34.5359Z" fill="#5889A1"/>
<path d="M59.0039 30.4788H58.5337C57.7275 30.49 56.9581 30.8182 56.392 31.3922C55.8258 31.9663 55.5084 32.7402 55.5084 33.5464C55.5084 34.3527 55.8258 35.1265 56.392 35.7006C56.9581 36.2747 57.7275 36.6028 58.5337 36.614H59.0039C59.4103 36.6197 59.8138 36.5445 60.191 36.3929C60.5681 36.2413 60.9114 36.0162 61.2008 35.7308C61.4902 35.4454 61.72 35.1053 61.8769 34.7303C62.0337 34.3553 62.1145 33.9529 62.1145 33.5464C62.1145 33.1399 62.0337 32.7375 61.8769 32.3625C61.72 31.9875 61.4902 31.6475 61.2008 31.362C60.9114 31.0766 60.5681 30.8516 60.191 30.7C59.8138 30.5483 59.4103 30.4732 59.0039 30.4788ZM59.0039 34.5359H58.5337C58.2754 34.5296 58.0299 34.4226 57.8495 34.2377C57.6691 34.0528 57.5681 33.8047 57.5681 33.5464C57.5681 33.2881 57.6691 33.04 57.8495 32.8552C58.0299 32.6703 58.2754 32.5633 58.5337 32.5569H59.0039C59.1359 32.5537 59.2672 32.5769 59.3901 32.6252C59.5129 32.6735 59.6249 32.7458 59.7194 32.838C59.8139 32.9302 59.889 33.0404 59.9402 33.1621C59.9915 33.2837 60.0179 33.4144 60.0179 33.5464C60.0179 33.6784 59.9915 33.8091 59.9402 33.9308C59.889 34.0524 59.8139 34.1626 59.7194 34.2548C59.6249 34.347 59.5129 34.4194 59.3901 34.4677C59.2672 34.5159 59.1359 34.5391 59.0039 34.5359Z" fill="#5889A1"/>
<path d="M49.6268 30.4788H49.1566C48.3504 30.49 47.581 30.8182 47.0149 31.3922C46.4487 31.9663 46.1313 32.7402 46.1313 33.5464C46.1313 34.3527 46.4487 35.1265 47.0149 35.7006C47.581 36.2747 48.3504 36.6028 49.1566 36.614H49.6268C50.0333 36.6197 50.4368 36.5445 50.8139 36.3929C51.191 36.2413 51.5343 36.0162 51.8237 35.7308C52.1131 35.4454 52.3429 35.1053 52.4998 34.7303C52.6566 34.3553 52.7374 33.9529 52.7374 33.5464C52.7374 33.1399 52.6566 32.7375 52.4998 32.3625C52.3429 31.9875 52.1131 31.6475 51.8237 31.362C51.5343 31.0766 51.191 30.8516 50.8139 30.7C50.4368 30.5483 50.0333 30.4732 49.6268 30.4788ZM49.6268 34.5359H49.1566C48.8983 34.5296 48.6528 34.4226 48.4724 34.2377C48.292 34.0528 48.191 33.8047 48.191 33.5464C48.191 33.2881 48.292 33.04 48.4724 32.8552C48.6528 32.6703 48.8983 32.5633 49.1566 32.5569H49.6268C49.7588 32.5537 49.8901 32.5769 50.013 32.6252C50.1359 32.6735 50.2478 32.7458 50.3423 32.838C50.4368 32.9302 50.5119 33.0404 50.5632 33.1621C50.6144 33.2837 50.6408 33.4144 50.6408 33.5464C50.6408 33.6784 50.6144 33.8091 50.5632 33.9308C50.5119 34.0524 50.4368 34.1626 50.3423 34.2548C50.2478 34.347 50.1359 34.4194 50.013 34.4677C49.8901 34.5159 49.7588 34.5391 49.6268 34.5359Z" fill="#5889A1"/>
<path d="M29.9102 7.19922H30.9492C31.2248 7.19922 31.4891 7.08975 31.6839 6.89488C31.8788 6.70002 31.9883 6.43573 31.9883 6.16016C31.9883 5.88458 31.8788 5.62029 31.6839 5.42543C31.4891 5.23057 31.2248 5.12109 30.9492 5.12109H29.9102C29.6346 5.12109 29.3703 5.23057 29.1754 5.42543C28.9806 5.62029 28.8711 5.88458 28.8711 6.16016C28.8711 6.43573 28.9806 6.70002 29.1754 6.89488C29.3703 7.08975 29.6346 7.19922 29.9102 7.19922Z" fill="#5889A1"/>
<path d="M28.0915 57.4453H47.9079C48.1835 57.4453 48.4478 57.3358 48.6426 57.141C48.8375 56.9461 48.9469 56.6818 48.9469 56.4062C48.9469 56.1307 48.8375 55.8664 48.6426 55.6715C48.4478 55.4767 48.1835 55.3672 47.9079 55.3672H28.0915C27.8159 55.3672 27.5516 55.4767 27.3568 55.6715C27.1619 55.8664 27.0524 56.1307 27.0524 56.4062C27.0524 56.6818 27.1619 56.9461 27.3568 57.141C27.5516 57.3358 27.8159 57.4453 28.0915 57.4453Z" fill="#5889A1"/>
<path d="M28.0915 64.6196H47.9079C48.1835 64.6196 48.4478 64.5102 48.6426 64.3153C48.8375 64.1204 48.9469 63.8561 48.9469 63.5806C48.9469 63.305 48.8375 63.0407 48.6426 62.8458C48.4478 62.651 48.1835 62.5415 47.9079 62.5415H28.0915C27.8159 62.5415 27.5516 62.651 27.3568 62.8458C27.1619 63.0407 27.0524 63.305 27.0524 63.5806C27.0524 63.8561 27.1619 64.1204 27.3568 64.3153C27.5516 64.5102 27.8159 64.6196 28.0915 64.6196Z" fill="#5889A1"/>
</g>
<defs>
<clipPath id="clip0">
<rect width="76" height="76" fill="white"/>
</clipPath>
</defs>
</svg>
