<svg width="31" height="34" viewBox="0 0 31 34" fill="none" xmlns="http://www.w3.org/2000/svg">
<path d="M28.3494 33.2046H19.771L15.5 32.3676L11.229 33.2046H2.65056C2.08107 33.2046 1.61934 32.7434 1.61934 32.1744V12.6146H29.3806V32.1744C29.3806 32.7433 28.9189 33.2046 28.3494 33.2046Z" fill="#B1C918"/>
<path d="M27.8983 12.6146V32.1744C27.8983 32.7433 27.4365 33.2046 26.8671 33.2046H28.3494C28.9189 33.2046 29.3806 32.7433 29.3806 32.1744V12.6146H27.8983Z" fill="#9FB41C"/>
<path d="M11.229 12.6146H19.7709V33.2046H11.229V12.6146Z" fill="#F4DE7F"/>
<path d="M18.2886 12.6146H19.771V33.2045H18.2886V12.6146Z" fill="#F0C078"/>
<path d="M26.9324 20.8086L23.9123 23.8258C23.4953 24.2424 22.8193 24.2424 22.4023 23.8258L18.2763 19.7037C18.0239 19.4515 17.9143 19.09 17.9843 18.7402L18.4877 16.2259C18.5722 15.8036 18.9026 15.4736 19.3253 15.3891L21.842 14.8862C22.1921 14.8163 22.554 14.9257 22.8064 15.1779L26.9323 19.3001C27.3494 19.7166 27.3494 20.392 26.9324 20.8086Z" fill="#B3E59F"/>
<path d="M26.9324 19.299L22.8064 15.1769C22.554 14.9247 22.1921 14.8153 21.842 14.8852L21.1341 15.0267C21.2021 15.0691 21.266 15.1191 21.324 15.1769L25.45 19.299C25.867 19.7157 25.867 20.3911 25.45 20.8077L22.43 23.8249C22.4255 23.8293 22.4206 23.833 22.4162 23.8374C22.8341 24.2407 23.4998 24.237 23.9123 23.8249L26.9323 20.8077C27.3494 20.3911 27.3494 19.7157 26.9324 19.299Z" fill="#95D6A4"/>
<path d="M25.791 6.43492C26.4172 5.5914 26.5061 4.42348 25.9356 3.47352L25.1941 2.23896C24.5668 1.19441 23.1929 0.885786 22.1784 1.56144L17.6354 4.58729H13.3645L8.8215 1.56144C7.80697 0.885721 6.43307 1.19441 5.80577 2.23896L5.06438 3.47352C4.49406 4.42316 4.58274 5.59069 5.20843 6.43415L15.5 8.25364L25.791 6.43492Z" fill="#F4DE7F"/>
<path d="M24.0385 6.74458L25.7906 6.43492C26.4169 5.5914 26.5061 4.42348 25.9356 3.47346L25.1942 2.2389C24.6544 1.34013 23.5621 0.98688 22.6214 1.33601C23.0609 1.49801 23.4509 1.80458 23.7118 2.2389L24.4532 3.47346C25.0975 4.54634 24.9005 5.897 24.0385 6.74458Z" fill="#F0C078"/>
<path d="M25.7915 6.43332L25.1942 5.43874C24.5669 4.39419 23.193 4.08556 22.1785 4.76122L17.6355 7.78707V8.25319H24.0076L24.042 7.78707L25.1274 7.06415C25.3907 6.88869 25.6128 6.67414 25.7915 6.43332Z" fill="#E8AA41"/>
<path d="M13.3645 8.25319V7.78706L8.82157 4.76121C7.80705 4.08549 6.43314 4.39418 5.80584 5.43873L5.20857 6.43331C5.38717 6.67413 5.60933 6.88874 5.87268 7.06414L6.9581 7.78706V8.25319H13.3645Z" fill="#E8AA41"/>
<path d="M25.7915 6.43331L25.1942 5.43873C25.0912 5.26725 24.9678 5.11606 24.8295 4.98535C24.7861 5.79874 24.3718 6.58012 23.645 7.06414L22.5596 7.78706L22.5252 8.25319H24.0076L24.042 7.78706L25.1274 7.06414C25.3907 6.88868 25.6128 6.67413 25.7915 6.43331Z" fill="#E88F41"/>
<path d="M17.6355 8.10902H13.3645V4.51382C13.3645 3.37584 14.2879 2.45332 15.4269 2.45332H15.573C16.7121 2.45332 17.6355 3.37584 17.6355 4.51382V8.10902Z" fill="#E8AA41"/>
<path d="M15.573 2.45338H15.4269C15.193 2.45338 14.9684 2.49285 14.7587 2.56452C15.5697 2.84191 16.153 3.60958 16.153 4.51382V8.10895H17.6354V4.51382C17.6355 3.37584 16.7121 2.45338 15.573 2.45338Z" fill="#E88F41"/>
<path d="M29.4171 12.9365H20.8387L15.5 11.6337L10.1613 12.9365H1.58287C1.01331 12.9365 0.551651 12.4753 0.551651 11.9063V8.81732C0.551651 8.2483 1.01331 7.78706 1.58287 7.78706H10.1613L15.5 8.60734L20.8387 7.78706H29.4171C29.9867 7.78706 30.4483 8.2483 30.4483 8.81732V11.9063C30.4483 12.4753 29.9867 12.9365 29.4171 12.9365Z" fill="#B1C918"/>
<path d="M29.4171 7.78706H27.9347C28.5043 7.78706 28.9659 8.2483 28.9659 8.81732V11.9063C28.9659 12.4753 28.5043 12.9365 27.9347 12.9365H29.4171C29.9867 12.9365 30.4483 12.4753 30.4483 11.9063V8.81732C30.4483 8.2483 29.9867 7.78706 29.4171 7.78706Z" fill="#9FB41C"/>
<path d="M10.1613 7.78706H20.8387V12.9365H10.1613V7.78706Z" fill="#F4DE7F"/>
<path d="M19.3563 7.78706H20.8387V12.9365H19.3563V7.78706Z" fill="#F0C078"/>
<path d="M29.4171 7.30413H25.6161C26.8396 6.32881 27.17 4.58974 26.3501 3.22459L25.6087 1.99009C25.2367 1.37052 24.6432 0.942063 23.9376 0.783533C23.2318 0.625003 22.512 0.758485 21.9103 1.15925L18.0048 3.76045C17.6826 2.72466 16.7143 1.97045 15.573 1.97045H15.4269C14.2856 1.97045 13.3173 2.72472 12.9951 3.76045L11.6634 2.87334C11.4413 2.72543 11.1411 2.78531 10.9931 3.00727C10.845 3.22916 10.905 3.52903 11.1271 3.67693L12.8812 4.84518V6.88463L9.08972 4.35935C8.488 3.95852 7.76795 3.8251 7.06247 3.98369C6.35693 4.14222 5.76346 4.57068 5.39138 5.19025L5.24676 5.43113C5.09136 4.87325 5.15801 4.256 5.47904 3.72149L6.22048 2.48693C6.45521 2.09614 6.82955 1.82576 7.27458 1.72583C7.71987 1.62576 8.17387 1.70999 8.55348 1.96285L9.19361 2.38918C9.41584 2.53702 9.71592 2.47714 9.8639 2.25519C10.012 2.03323 9.95194 1.73343 9.72985 1.58546L9.08972 1.15919C8.488 0.75842 7.76821 0.625003 7.06247 0.783468C6.35693 0.941999 5.76346 1.37052 5.39138 1.99002L4.64994 3.22459C3.83006 4.58974 4.16043 6.32881 5.38391 7.30413H1.58284C0.747681 7.30413 0.0682373 7.98294 0.0682373 8.81732V11.9063C0.0682373 12.5853 0.518299 13.1613 1.136 13.3522V32.1743C1.136 33.0087 1.81544 33.6875 2.6506 33.6875H3.85577C4.12279 33.6875 4.33915 33.4713 4.33915 33.2046C4.33915 32.9379 4.12279 32.7216 3.85577 32.7216H2.65066C2.34858 32.7216 2.10283 32.4761 2.10283 32.1743V13.4195H10.7457V30.5882H4.82267C4.55565 30.5882 4.33928 30.8044 4.33928 31.0711C4.33928 31.3378 4.55565 31.554 4.82267 31.554H10.7457V32.7216H5.78943C5.52241 32.7216 5.30605 32.9379 5.30605 33.2046C5.30605 33.4713 5.52241 33.6875 5.78943 33.6875H28.3494C29.1846 33.6875 29.8641 33.0087 29.8641 32.1743V13.3522C30.4818 13.1613 30.9318 12.5853 30.9318 11.9063V8.81732C30.9317 7.98294 30.2523 7.30413 29.4171 7.30413ZM19.232 7.30413L22.4466 5.16307C22.8263 4.91028 23.2806 4.82612 23.7255 4.92612C24.1706 5.02612 24.545 5.29643 24.7796 5.68722L25.1982 6.38418C25.0966 6.48611 24.9836 6.57954 24.8592 6.66235L23.8956 7.3042H19.232V7.30413ZM22.4466 1.96285C22.8262 1.71005 23.2802 1.62583 23.7255 1.72583C24.1706 1.82583 24.545 2.09614 24.7796 2.48699L25.5211 3.72156C25.8422 4.25607 25.9088 4.87332 25.7534 5.4312L25.6087 5.19031C25.2367 4.57074 24.6432 4.14229 23.9376 3.98376C23.232 3.82529 22.5121 3.95864 21.9103 4.35941L18.1189 6.88469V4.84524L22.4466 1.96285ZM15.4269 2.93625H15.5731C16.4438 2.93625 17.1522 3.64397 17.1522 4.51382V4.58362V4.5851V7.30407H13.8479V5.06971H15.5C15.767 5.06971 15.9834 4.85348 15.9834 4.58678C15.9834 4.32007 15.767 4.10385 15.5 4.10385H13.9023C14.0835 3.43218 14.6981 2.93625 15.4269 2.93625ZM6.14076 6.66229C6.01643 6.57948 5.90345 6.48598 5.80181 6.38412L6.22035 5.68715C6.45502 5.29636 6.82935 5.02605 7.27445 4.92605C7.71974 4.82592 8.17387 4.91021 8.55336 5.16301L11.768 7.30407H7.10443L6.14076 6.66229ZM1.61945 12.4536H1.5829C1.28082 12.4536 1.03507 12.2081 1.03507 11.9063V8.81732C1.03507 8.51552 1.28089 8.27 1.5829 8.27H9.67803V12.4536H1.61945ZM10.6447 8.27H20.3553V12.4536H10.6447V8.27ZM18.6182 19.3613C18.4798 19.2229 18.42 19.0258 18.4585 18.834L18.9242 16.5071L19.7956 17.3776C19.89 17.4719 20.0137 17.5191 20.1374 17.5191C20.2611 17.5191 20.3848 17.472 20.4793 17.3776C20.668 17.189 20.668 16.8832 20.4793 16.6947L19.6079 15.8242L19.8668 15.7725C19.8679 15.7723 19.8689 15.772 19.87 15.7718L21.937 15.3588C21.9753 15.3512 22.0138 15.3474 22.0521 15.3474C22.2054 15.3474 22.354 15.4078 22.4647 15.5185L26.5907 19.6406C26.7011 19.7509 26.7619 19.8975 26.7619 20.0535C26.7619 20.2095 26.7011 20.3561 26.5907 20.4663L23.5707 23.4835C23.4604 23.5937 23.3136 23.6545 23.1576 23.6545C23.0015 23.6545 22.8547 23.5938 22.7444 23.4835L18.6182 19.3613ZM19.2876 14.9032L19.2305 14.9145C19.0904 14.9426 18.958 14.9897 18.8347 15.0518L17.2008 13.4195H19.2875V14.9032H19.2876ZM11.7124 32.7217V13.4195H15.8336L18.1511 15.7348C18.0889 15.8579 18.0417 15.9903 18.0137 16.1302L17.5104 18.6446C17.4085 19.1538 17.567 19.677 17.9345 20.0442L19.2876 21.396V32.7217H11.7124ZM28.8972 32.1744C28.8972 32.4762 28.6514 32.7217 28.3494 32.7217H20.2543V31.5541H26.1774C26.4444 31.5541 26.6608 31.3379 26.6608 31.0712C26.6608 30.8045 26.4444 30.5882 26.1774 30.5882H20.2543V22.3619L22.0605 24.1664C22.3535 24.4591 22.743 24.6202 23.1574 24.6202C23.5717 24.6202 23.9612 24.4591 24.2542 24.1664L27.2742 21.1492C27.5671 20.8565 27.7285 20.4674 27.7285 20.0534C27.7285 19.6394 27.5671 19.2502 27.2742 18.9576L23.1482 14.8355C22.7807 14.4683 22.257 14.3099 21.7472 14.4117L20.2543 14.71V13.4195H28.8972V32.1744ZM29.965 11.9063C29.965 12.2081 29.7192 12.4536 29.4171 12.4536H29.3806H21.3221V8.27H29.4172C29.7192 8.27 29.965 8.51552 29.965 8.81732V11.9063H29.965Z" fill="black"/>
<path d="M21.2342 18.9576C21.0454 18.769 20.7394 18.769 20.5506 18.9576C20.3618 19.1462 20.3618 19.452 20.5506 19.6405L20.7394 19.8291C20.8338 19.9234 20.9575 19.9706 21.0812 19.9706C21.2049 19.9706 21.3287 19.9235 21.4231 19.8291C21.6119 19.6405 21.6119 19.3347 21.4231 19.1461L21.2342 18.9576Z" fill="black"/>
<path d="M24.3255 20.3949C24.42 20.4891 24.5437 20.5363 24.6674 20.5363C24.7911 20.5363 24.9148 20.4892 25.0093 20.3949C25.198 20.2063 25.198 19.9005 25.0093 19.7119L24.8205 19.5233C24.6316 19.3347 24.3256 19.3347 24.1368 19.5233C23.948 19.7119 23.948 20.0177 24.1368 20.2063L24.3255 20.3949Z" fill="black"/>
<path d="M23.1568 22.045C23.1882 22.045 23.2201 22.0419 23.2521 22.0355C23.5138 21.9832 23.6837 21.7288 23.6313 21.4673L22.8764 17.6958C22.8241 17.4343 22.5692 17.2647 22.3076 17.3169C22.0458 17.3693 21.876 17.6237 21.9283 17.8852L22.6833 21.6567C22.7293 21.8863 22.9311 22.045 23.1568 22.045Z" fill="black"/>
</svg>
