<svg width="32" height="33" viewBox="0 0 32 33" fill="none" xmlns="http://www.w3.org/2000/svg">
<g clip-path="url(#clip0)">
<path d="M29.6562 1.18718H27.7812V32.2206H29.6562C30.6918 32.2206 31.5312 31.382 31.5312 30.3474V3.06043C31.5312 2.02583 30.6918 1.18718 29.6562 1.18718Z" fill="#EBF993"/>
<path d="M29.6562 30.3474V3.06043C29.6562 2.02583 28.8168 1.18718 27.7812 1.18718H2.34375C1.30819 1.18718 0.46875 2.02583 0.46875 3.06043V30.3474C0.46875 31.382 1.30819 32.2206 2.34375 32.2206H27.7812C28.8168 32.2206 29.6562 31.382 29.6562 30.3474Z" fill="#E5EEAE"/>
<path d="M6.09375 6.80648H25.9062V26.6004H6.09375V6.80648Z" fill="#B1C918"/>
<path d="M16.951 8.73618V24.6708C20.9382 24.2007 24.0312 20.8133 24.0312 16.7035C24.0312 12.5936 20.9382 9.20624 16.951 8.73618Z" fill="#EBF993"/>
<path d="M22.1562 16.7035C22.1562 12.5953 19.8826 9.20836 16.951 8.73618C16.9465 8.73568 16.942 8.73499 16.9375 8.73443H15.0625C11.0687 9.19837 7.96875 12.5889 7.96875 16.7035C7.96875 20.818 11.0687 24.2085 15.0625 24.6725H16.9375C16.942 24.6719 16.9465 24.6713 16.951 24.6708C19.8826 24.1986 22.1562 20.8117 22.1562 16.7035Z" fill="#E5EEAE"/>
<path d="M16 12.4262C16.5178 12.4262 16.9375 12.0069 16.9375 11.4896V8.73442C16.6299 8.69871 16.3172 8.67973 16 8.67973C15.6828 8.67973 15.3701 8.69871 15.0625 8.73442V11.4896C15.0625 12.0069 15.4822 12.4262 16 12.4262Z" fill="#FF9633"/>
<path d="M16 20.9807C15.4822 20.9807 15.0625 21.4001 15.0625 21.9173V24.6725C15.3701 24.7082 15.6828 24.7272 16 24.7272C16.3172 24.7272 16.6299 24.7082 16.9375 24.6725V21.9173C16.9375 21.4001 16.5178 20.9807 16 20.9807Z" fill="#FF9633"/>
<path d="M11.25 18.1084C12.0267 18.1084 12.6562 17.4794 12.6562 16.7035C12.6562 15.9275 12.0267 15.2985 11.25 15.2985C10.4733 15.2985 9.84375 15.9275 9.84375 16.7035C9.84375 17.4794 10.4733 18.1084 11.25 18.1084Z" fill="#A94525"/>
<path d="M20.75 18.1084C21.5267 18.1084 22.1562 17.4794 22.1562 16.7035C22.1562 15.9275 21.5267 15.2985 20.75 15.2985C19.9733 15.2985 19.3438 15.9275 19.3438 16.7035C19.3438 17.4794 19.9733 18.1084 20.75 18.1084Z" fill="#A94525"/>
<path d="M16 17.6401C16.5178 17.6401 16.9375 17.2207 16.9375 16.7035C16.9375 16.1862 16.5178 15.7668 16 15.7668C15.4822 15.7668 15.0625 16.1862 15.0625 16.7035C15.0625 17.2207 15.4822 17.6401 16 17.6401Z" fill="#EBF993"/>
<path d="M29.6562 0.71843H2.34375C1.05138 0.71843 0 1.76882 0 3.05999V30.3469C0 31.6381 1.05138 32.6885 2.34375 32.6885H29.6562C30.9486 32.6885 32 31.6381 32 30.3469V3.05999C32 1.76882 30.9486 0.71843 29.6562 0.71843ZM31.0625 30.3469C31.0625 31.1217 30.4316 31.7519 29.6562 31.7519H2.34375C1.56837 31.7519 0.9375 31.1217 0.9375 30.3469V3.05999C0.9375 2.28527 1.56837 1.65505 2.34375 1.65505H29.6562C30.4316 1.65505 31.0625 2.28527 31.0625 3.05999V30.3469Z" fill="black"/>
<path d="M25.9062 6.33817H6.09375C5.83481 6.33817 5.625 6.54784 5.625 6.80648V15.7668C5.625 16.0255 5.83481 16.2351 6.09375 16.2351C6.35269 16.2351 6.5625 16.0255 6.5625 15.7668V7.27479H25.4375V26.1321H6.5625V17.6401C6.5625 17.3815 6.35269 17.1718 6.09375 17.1718C5.83481 17.1718 5.625 17.3815 5.625 17.6401V26.6004C5.625 26.8591 5.83481 27.0688 6.09375 27.0688H25.9062C26.1652 27.0688 26.375 26.8591 26.375 26.6004V6.80648C26.375 6.54784 26.1652 6.33817 25.9062 6.33817Z" fill="black"/>
<path d="M24.5 16.7035C24.5 12.0209 20.6869 8.21141 16 8.21141C11.3131 8.21141 7.5 12.0209 7.5 16.7035C7.5 21.386 11.3131 25.1955 16 25.1955C20.6869 25.1955 24.5 21.386 24.5 16.7035ZM15.5312 24.244V21.9173C15.5312 21.6591 15.7415 21.449 16 21.449C16.2585 21.449 16.4688 21.6591 16.4688 21.9173V24.244C16.3136 24.2535 16.1574 24.2589 16 24.2589C15.8426 24.2589 15.6864 24.2535 15.5312 24.244ZM16.4688 9.16296V11.4896C16.4688 11.7478 16.2585 11.9579 16 11.9579C15.7415 11.9579 15.5312 11.7478 15.5312 11.4896V9.16296C15.6864 9.15347 15.8426 9.14803 16 9.14803C16.1574 9.14803 16.3136 9.15347 16.4688 9.16296ZM8.4375 16.7035C8.4375 13.0174 11.0934 9.93992 14.5938 9.27954V11.4896C14.5938 12.2643 15.2246 12.8945 16 12.8945C16.7754 12.8945 17.4062 12.2643 17.4062 11.4896V9.27954C20.9066 9.93992 23.5625 13.0174 23.5625 16.7035C23.5625 20.3895 20.9066 23.467 17.4062 24.1274V21.9173C17.4062 21.1426 16.7754 20.5124 16 20.5124C15.2246 20.5124 14.5938 21.1426 14.5938 21.9173V24.1274C11.0934 23.467 8.4375 20.3895 8.4375 16.7035Z" fill="black"/>
<path d="M11.25 14.8302C10.2161 14.8302 9.375 15.6706 9.375 16.7035C9.375 17.7364 10.2161 18.5767 11.25 18.5767C12.2839 18.5767 13.125 17.7364 13.125 16.7035C13.125 15.6706 12.2839 14.8302 11.25 14.8302ZM11.25 17.6401C10.7331 17.6401 10.3125 17.2199 10.3125 16.7035C10.3125 16.187 10.7331 15.7668 11.25 15.7668C11.7669 15.7668 12.1875 16.187 12.1875 16.7035C12.1875 17.2199 11.7669 17.6401 11.25 17.6401Z" fill="black"/>
<path d="M20.75 18.5767C21.7839 18.5767 22.625 17.7364 22.625 16.7035C22.625 15.6706 21.7839 14.8302 20.75 14.8302C19.7161 14.8302 18.875 15.6706 18.875 16.7035C18.875 17.7364 19.7161 18.5767 20.75 18.5767ZM20.75 15.7668C21.2669 15.7668 21.6875 16.187 21.6875 16.7035C21.6875 17.2199 21.2669 17.6401 20.75 17.6401C20.2331 17.6401 19.8125 17.2199 19.8125 16.7035C19.8125 16.187 20.2331 15.7668 20.75 15.7668Z" fill="black"/>
<path d="M16 18.1084C16.7754 18.1084 17.4062 17.4782 17.4062 16.7035C17.4062 15.9288 16.7754 15.2985 16 15.2985C15.2246 15.2985 14.5938 15.9288 14.5938 16.7035C14.5938 17.4782 15.2246 18.1084 16 18.1084ZM16 16.2352C16.2585 16.2352 16.4688 16.4452 16.4688 16.7035C16.4688 16.9617 16.2585 17.1718 16 17.1718C15.7415 17.1718 15.5312 16.9617 15.5312 16.7035C15.5312 16.4452 15.7415 16.2352 16 16.2352Z" fill="black"/>
</g>
<defs>
<clipPath id="clip0">
<rect width="32" height="31.9701" fill="white" transform="translate(0 0.71843)"/>
</clipPath>
</defs>
</svg>
