<svg width="1205" height="1091" viewBox="0 0 1205 1091" fill="none" xmlns="http://www.w3.org/2000/svg">
<g clip-path="url(#clip0)">
<path fill-rule="evenodd" clip-rule="evenodd" d="M807.839 163.251C810.083 165.495 811.863 168.159 813.078 171.091C814.292 174.022 814.917 177.165 814.917 180.338C814.917 183.512 814.292 186.654 813.078 189.586C811.863 192.518 810.083 195.182 807.839 197.426L622.041 383.252C617.51 387.784 611.365 390.33 604.957 390.33C598.548 390.33 592.403 387.784 587.872 383.252C583.34 378.72 580.795 372.574 580.795 366.165C580.795 359.756 583.34 353.609 587.872 349.077L773.669 163.251C775.913 161.006 778.576 159.226 781.508 158.012C784.439 156.797 787.581 156.172 790.754 156.172C793.927 156.172 797.069 156.797 800.001 158.012C802.932 159.226 805.596 161.006 807.839 163.251V163.251Z" fill="#53AE47"/>
<path fill-rule="evenodd" clip-rule="evenodd" d="M524.532 446.602C526.776 448.845 528.556 451.51 529.77 454.441C530.985 457.373 531.61 460.516 531.61 463.689C531.61 466.863 530.985 470.005 529.77 472.937C528.556 475.869 526.776 478.533 524.532 480.777L338.734 666.603C336.491 668.847 333.827 670.627 330.896 671.842C327.964 673.056 324.822 673.681 321.649 673.681C318.476 673.681 315.335 673.056 312.403 671.842C309.472 670.627 306.808 668.847 304.565 666.603C302.321 664.359 300.541 661.695 299.327 658.763C298.113 655.832 297.488 652.689 297.488 649.516C297.488 646.342 298.113 643.2 299.327 640.268C300.541 637.336 302.321 634.672 304.565 632.428L490.362 446.602C492.606 444.357 495.269 442.577 498.201 441.362C501.132 440.148 504.274 439.523 507.447 439.523C510.62 439.523 513.762 440.148 516.694 441.362C519.625 442.577 522.288 444.357 524.532 446.602V446.602Z" fill="#83C5E5"/>
<path d="M555.967 439.262C569.432 439.262 580.348 428.345 580.348 414.878C580.348 401.411 569.432 390.493 555.967 390.493C542.502 390.493 531.587 401.411 531.587 414.878C531.587 428.345 542.502 439.262 555.967 439.262Z" fill="#8781BD"/>
<path fill-rule="evenodd" clip-rule="evenodd" d="M510.336 580.561C512.58 582.804 514.36 585.468 515.574 588.4C516.789 591.332 517.414 594.475 517.414 597.648C517.414 600.822 516.789 603.964 515.574 606.896C514.36 609.828 512.58 612.492 510.336 614.736L324.538 800.562C320.007 805.094 313.861 807.64 307.453 807.64C301.045 807.64 294.899 805.094 290.368 800.562C285.837 796.03 283.292 789.884 283.292 783.475C283.292 777.066 285.837 770.919 290.368 766.387L476.166 580.561C478.409 578.316 481.073 576.536 484.004 575.321C486.936 574.107 490.078 573.482 493.251 573.482C496.424 573.482 499.566 574.107 502.497 575.321C505.429 576.536 508.092 578.316 510.336 580.561V580.561Z" fill="#8FCA25"/>
<path fill-rule="evenodd" clip-rule="evenodd" d="M227.028 863.912C229.272 866.156 231.052 868.82 232.266 871.751C233.481 874.683 234.106 877.826 234.106 880.999C234.106 884.173 233.481 887.315 232.266 890.247C231.052 893.179 229.272 895.843 227.028 898.087L41.2308 1083.91C38.9872 1086.16 36.3236 1087.94 33.3922 1089.15C30.4607 1090.37 27.3189 1090.99 24.1459 1090.99C20.973 1090.99 17.8311 1090.37 14.8997 1089.15C11.9682 1087.94 9.3047 1086.16 7.06108 1083.91C4.81747 1081.67 3.03774 1079.01 1.82351 1076.07C0.609272 1073.14 -0.0156861 1070 -0.015686 1066.83C-0.0156859 1063.65 0.609271 1060.51 1.82351 1057.58C3.03774 1054.65 4.81747 1051.98 7.06108 1049.74L192.859 863.912C195.102 861.667 197.766 859.887 200.697 858.672C203.629 857.458 206.771 856.833 209.944 856.833C213.117 856.833 216.259 857.458 219.19 858.672C222.122 859.887 224.785 861.667 227.028 863.912V863.912Z" fill="#83C5E5"/>
<path d="M258.464 856.572C271.929 856.572 282.844 845.655 282.844 832.188C282.844 818.721 271.929 807.803 258.464 807.803C244.999 807.803 234.083 818.721 234.083 832.188C234.083 845.655 244.999 856.572 258.464 856.572Z" fill="#8781BD"/>
<path fill-rule="evenodd" clip-rule="evenodd" d="M1027.57 63.2446C1029.82 65.4883 1031.6 68.1524 1032.81 71.0843C1034.03 74.0162 1034.65 77.1586 1034.65 80.3322C1034.65 83.5058 1034.03 86.6482 1032.81 89.5801C1031.6 92.512 1029.82 95.1759 1027.57 97.4196L841.774 283.246C837.243 287.778 831.097 290.324 824.689 290.324C818.281 290.324 812.136 287.778 807.604 283.246C803.073 278.714 800.528 272.568 800.528 266.159C800.528 259.75 803.073 253.603 807.604 249.071L993.402 63.2446C995.646 61.0002 998.309 59.22 1001.24 58.0053C1004.17 56.7907 1007.31 56.1654 1010.49 56.1654C1013.66 56.1654 1016.8 56.7907 1019.73 58.0053C1022.67 59.22 1025.33 61.0002 1027.57 63.2446V63.2446Z" fill="#FAC811"/>
<path fill-rule="evenodd" clip-rule="evenodd" d="M744.265 346.596C746.509 348.839 748.289 351.503 749.503 354.435C750.718 357.367 751.343 360.51 751.343 363.683C751.343 366.857 750.718 369.999 749.503 372.931C748.289 375.863 746.509 378.527 744.265 380.771L558.467 566.597C556.223 568.841 553.56 570.621 550.628 571.835C547.697 573.05 544.555 573.675 541.382 573.675C538.209 573.675 535.067 573.05 532.136 571.835C529.204 570.621 526.541 568.841 524.297 566.597C522.054 564.353 520.274 561.689 519.06 558.757C517.846 555.825 517.221 552.683 517.221 549.51C517.221 546.336 517.846 543.194 519.06 540.262C520.274 537.33 522.054 534.666 524.297 532.422L710.095 346.596C712.338 344.351 715.002 342.571 717.933 341.356C720.865 340.142 724.007 339.516 727.18 339.516C730.353 339.516 733.495 340.142 736.426 341.356C739.358 342.571 742.021 344.351 744.265 346.596V346.596Z" fill="#EED886"/>
<path d="M775.7 339.256C789.165 339.256 800.081 328.338 800.081 314.871C800.081 301.404 789.165 290.487 775.7 290.487C762.235 290.487 751.32 301.404 751.32 314.871C751.32 328.338 762.235 339.256 775.7 339.256Z" fill="#0054A6"/>
<path fill-rule="evenodd" clip-rule="evenodd" d="M680.69 524.384C682.934 526.628 684.714 529.292 685.929 532.224C687.143 535.156 687.768 538.298 687.768 541.472C687.768 544.646 687.143 547.788 685.929 550.72C684.714 553.652 682.934 556.316 680.69 558.559L494.893 744.386C492.649 746.63 489.985 748.41 487.054 749.624C484.123 750.839 480.981 751.464 477.808 751.464C474.635 751.464 471.493 750.839 468.562 749.624C465.63 748.41 462.967 746.63 460.723 744.386C458.479 742.142 456.7 739.478 455.485 736.546C454.271 733.614 453.646 730.472 453.646 727.298C453.646 724.125 454.271 720.982 455.485 718.051C456.7 715.119 458.479 712.455 460.723 710.211L646.521 524.384C648.764 522.14 651.428 520.36 654.359 519.145C657.29 517.93 660.432 517.305 663.605 517.305C666.779 517.305 669.921 517.93 672.852 519.145C675.783 520.36 678.447 522.14 680.69 524.384V524.384Z" fill="#FFC344"/>
<path fill-rule="evenodd" clip-rule="evenodd" d="M397.383 807.735C399.627 809.979 401.407 812.643 402.622 815.575C403.836 818.507 404.461 821.649 404.461 824.823C404.461 827.997 403.836 831.139 402.622 834.071C401.407 837.003 399.627 839.667 397.383 841.91L211.585 1027.74C209.342 1029.98 206.678 1031.76 203.747 1032.98C200.815 1034.19 197.674 1034.81 194.501 1034.81C191.328 1034.81 188.186 1034.19 185.254 1032.98C182.323 1031.76 179.659 1029.98 177.416 1027.74C175.172 1025.49 173.392 1022.83 172.178 1019.9C170.964 1016.97 170.339 1013.82 170.339 1010.65C170.339 1007.48 170.964 1004.33 172.178 1001.4C173.392 998.47 175.172 995.806 177.416 993.562L363.213 807.735C365.457 805.491 368.12 803.711 371.052 802.496C373.983 801.281 377.125 800.656 380.298 800.656C383.471 800.656 386.613 801.281 389.545 802.496C392.476 803.711 395.14 805.491 397.383 807.735V807.735Z" fill="#FFF200"/>
<path d="M428.818 800.396C442.283 800.396 453.199 789.478 453.199 776.011C453.199 762.544 442.283 751.627 428.818 751.627C415.354 751.627 404.438 762.544 404.438 776.011C404.438 789.478 415.354 800.396 428.818 800.396Z" fill="#0054A6"/>
<path fill-rule="evenodd" clip-rule="evenodd" d="M602.302 252.763C604.546 255.006 606.327 257.67 607.541 260.602C608.755 263.534 609.381 266.677 609.381 269.85C609.381 273.024 608.755 276.166 607.541 279.098C606.327 282.03 604.546 284.694 602.302 286.938L416.505 472.764C411.974 477.296 405.828 479.842 399.42 479.842C393.012 479.842 386.866 477.296 382.335 472.764C377.804 468.232 375.258 462.086 375.258 455.677C375.258 449.267 377.804 443.121 382.335 438.589L568.133 252.763C570.376 250.518 573.04 248.738 575.971 247.523C578.903 246.309 582.045 245.683 585.218 245.683C588.391 245.683 591.533 246.309 594.464 247.523C597.396 248.738 600.059 250.518 602.302 252.763V252.763Z" fill="#00AEEF"/>
<path fill-rule="evenodd" clip-rule="evenodd" d="M318.995 536.114C321.239 538.357 323.019 541.021 324.234 543.953C325.448 546.885 326.073 550.028 326.073 553.201C326.073 556.375 325.448 559.517 324.234 562.449C323.019 565.381 321.239 568.045 318.995 570.289L133.198 756.115C128.666 760.647 122.521 763.193 116.113 763.193C109.705 763.193 103.559 760.647 99.0279 756.115C94.4967 751.583 91.9511 745.437 91.9511 739.027C91.9511 732.618 94.4967 726.472 99.0279 721.94L284.826 536.114C287.069 533.869 289.732 532.089 292.664 530.874C295.595 529.66 298.737 529.034 301.91 529.034C305.084 529.034 308.225 529.66 311.157 530.874C314.088 532.089 316.752 533.869 318.995 536.114V536.114Z" fill="#ED145B"/>
<path d="M350.431 528.774C363.896 528.774 374.811 517.856 374.811 504.389C374.811 490.922 363.896 480.005 350.431 480.005C336.966 480.005 326.05 490.922 326.05 504.389C326.05 517.856 336.966 528.774 350.431 528.774Z" fill="#8781BD"/>
<path fill-rule="evenodd" clip-rule="evenodd" d="M1197.93 7.06828C1200.17 9.31202 1201.95 11.976 1203.17 14.9079C1204.38 17.8398 1205 20.9823 1205 24.1559C1205 27.3294 1204.38 30.4719 1203.17 33.4038C1201.95 36.3357 1200.17 38.9996 1197.93 41.2433L1012.13 227.07C1009.89 229.314 1007.22 231.094 1004.29 232.308C1001.36 233.522 998.217 234.147 995.044 234.147C991.871 234.147 988.729 233.522 985.798 232.308C982.866 231.094 980.203 229.314 977.959 227.07C975.716 224.826 973.936 222.162 972.722 219.23C971.507 216.298 970.882 213.156 970.882 209.982C970.882 206.809 971.507 203.666 972.722 200.734C973.936 197.803 975.716 195.139 977.959 192.895L1163.76 7.06828C1166 4.82392 1168.66 3.0437 1171.6 1.82903C1174.53 0.614357 1177.67 -0.0108795 1180.84 -0.0108795C1184.01 -0.0108795 1187.16 0.614357 1190.09 1.82903C1193.02 3.0437 1195.68 4.82392 1197.93 7.06828V7.06828Z" fill="#00AEEF"/>
<path fill-rule="evenodd" clip-rule="evenodd" d="M914.619 290.419C916.863 292.663 918.643 295.327 919.858 298.259C921.072 301.191 921.698 304.333 921.698 307.507C921.698 310.68 921.072 313.823 919.858 316.755C918.643 319.687 916.863 322.351 914.619 324.594L728.822 510.421C724.291 514.953 718.145 517.499 711.737 517.499C705.329 517.499 699.183 514.953 694.652 510.421C690.121 505.889 687.575 499.742 687.575 493.333C687.575 486.924 690.121 480.778 694.652 476.246L880.45 290.419C882.693 288.175 885.357 286.395 888.288 285.18C891.22 283.965 894.361 283.34 897.535 283.34C900.708 283.34 903.85 283.965 906.781 285.18C909.713 286.395 912.376 288.175 914.619 290.419V290.419Z" fill="#7CC576"/>
<path d="M946.055 283.079C959.52 283.079 970.435 272.162 970.435 258.695C970.435 245.228 959.52 234.311 946.055 234.311C932.59 234.311 921.674 245.228 921.674 258.695C921.674 272.162 932.59 283.079 946.055 283.079Z" fill="#8781BD"/>
</g>
<defs>
<clipPath id="clip0">
<rect width="1205" height="1091" fill="white"/>
</clipPath>
</defs>
</svg>
