<svg width="29" height="30" viewBox="0 0 29 30" fill="none" xmlns="http://www.w3.org/2000/svg">
<g clip-path="url(#clip0)">
<path d="M0.476632 15.3734H0.493548C0.754179 15.3736 0.967989 15.1672 0.97687 14.9069C1.23835 7.44441 7.50553 1.60663 14.975 1.86781C17.8481 1.9683 20.6146 2.98022 22.8733 4.757H20.3011C20.0341 4.757 19.8177 4.9732 19.8177 5.23987C19.8177 5.50653 20.0341 5.72274 20.3011 5.72274H24.1676H24.1744C24.2122 5.71966 24.2495 5.71224 24.2856 5.70053C24.3103 5.69697 24.3346 5.69165 24.3586 5.68459C24.3721 5.6788 24.3822 5.66673 24.3953 5.65948C24.4387 5.6383 24.4785 5.61041 24.5132 5.57691L24.518 5.57353C24.5303 5.55675 24.5415 5.53919 24.5514 5.5209C24.5767 5.49012 24.598 5.45619 24.6147 5.41998C24.628 5.38147 24.6362 5.34139 24.6389 5.30071C24.6444 5.28079 24.6485 5.26045 24.651 5.23987V1.37691C24.651 1.11024 24.4346 0.894037 24.1676 0.894037C23.9007 0.894037 23.6843 1.11024 23.6843 1.37691V4.17369C17.4917 -0.895359 8.35835 0.0107472 3.28455 6.19764C1.27073 8.65328 0.120302 11.7019 0.0102256 14.8746C0.00128413 15.1409 0.210019 15.3642 0.476632 15.3734Z" fill="#282828"/>
<path d="M4.38856 24.3659C4.21118 24.1658 3.90511 24.1474 3.7049 24.3246C3.50468 24.5018 3.48619 24.8076 3.66357 25.0076C3.99628 25.3806 4.34778 25.7365 4.71673 26.0738C4.91737 26.2497 5.22271 26.2298 5.39882 26.0294C5.56992 25.8346 5.55663 25.5397 5.36873 25.3611C5.02521 25.0463 4.69806 24.7141 4.38856 24.3659Z" fill="#B1C918"/>
<path d="M10.1566 28.1892C9.71469 28.0398 9.2809 27.8675 8.85691 27.673C8.61772 27.5547 8.32773 27.6525 8.20926 27.8914C8.09078 28.1304 8.18865 28.4201 8.42784 28.5385C8.43605 28.5425 8.44439 28.5464 8.45285 28.5499C8.90742 28.759 9.37273 28.944 9.84675 29.1043C10.0997 29.1897 10.3741 29.0542 10.4596 28.8015C10.5452 28.5489 10.4095 28.2747 10.1566 28.1892Z" fill="#B1C918"/>
<path d="M7.61768 27.0241V27.0236C7.21598 26.7858 6.8266 26.528 6.45094 26.251C6.24136 26.0858 5.93747 26.1216 5.77211 26.331C5.60675 26.5404 5.64264 26.844 5.85222 27.0092C5.86008 27.0154 5.86805 27.0213 5.87627 27.027C6.27803 27.3242 6.69471 27.6005 7.12469 27.8551C7.35439 27.9911 7.65097 27.9154 7.78709 27.6859C7.92326 27.4564 7.84738 27.1601 7.61768 27.0241Z" fill="#B1C918"/>
<path d="M3.51332 23.276C3.24085 22.8976 2.98795 22.5054 2.75547 22.1012C2.62202 21.8698 2.3261 21.7904 2.09453 21.9237C1.86296 22.0571 1.78345 22.3527 1.91691 22.5841C2.16594 23.0163 2.43696 23.4355 2.72889 23.84C2.88917 24.0533 3.19216 24.0963 3.4056 23.9362C3.61295 23.7806 3.66049 23.4893 3.51332 23.276Z" fill="#B1C918"/>
<path d="M2.16517 21.0542C2.16517 20.9869 2.15103 20.9204 2.12379 20.8589L2.12282 20.8555C1.93366 20.4298 1.76667 19.9946 1.62258 19.5517C1.5525 19.2944 1.28685 19.1426 1.0293 19.2126C0.771754 19.2827 0.619749 19.5481 0.689891 19.8054C0.693999 19.8203 0.698772 19.8351 0.70427 19.8497C0.85851 20.3254 1.03728 20.7928 1.23979 21.25C1.3173 21.4248 1.4907 21.5374 1.68203 21.5373C1.94895 21.5372 2.16523 21.3209 2.16517 21.0542Z" fill="#B1C918"/>
<path d="M0.889098 18.7729C0.889159 18.7729 0.88928 18.7728 0.88934 18.7728C1.15015 18.7173 1.31666 18.4612 1.2615 18.2006C1.1652 17.7445 1.09227 17.2837 1.04304 16.8201C1.01488 16.5547 0.776726 16.3624 0.51114 16.3905C0.245555 16.4187 0.0530716 16.6566 0.0812251 16.9219C0.134149 17.4185 0.212508 17.912 0.31612 18.4005C0.37146 18.6614 0.627983 18.8281 0.889098 18.7729Z" fill="#B1C918"/>
<path d="M28.2272 18.2799C28.227 18.2798 28.2268 18.2798 28.2267 18.2798C27.9676 18.2157 27.7056 18.3735 27.6414 18.6323C27.5293 19.085 27.394 19.5316 27.2358 19.9703C27.1453 20.2213 27.2756 20.498 27.5268 20.5884C27.778 20.6788 28.055 20.5487 28.1455 20.2977C28.315 19.8278 28.4602 19.3494 28.5804 18.8645C28.6445 18.6057 28.4863 18.3439 28.2272 18.2799Z" fill="#B1C918"/>
<path d="M12.8816 28.8039C12.4183 28.7488 11.9582 28.6699 11.5031 28.5673C11.2427 28.5085 10.9839 28.6717 10.9251 28.9319C10.8662 29.192 11.0296 29.4506 11.29 29.5094C11.7778 29.6192 12.271 29.7039 12.7675 29.7629C12.7868 29.7653 12.8061 29.7663 12.8255 29.7663C13.0924 29.7657 13.3083 29.5491 13.3078 29.2824C13.3073 29.0382 13.1244 28.8328 12.8816 28.8039Z" fill="#B1C918"/>
<path d="M27.3358 21.0341C27.0955 20.9182 26.8067 21.0187 26.6905 21.2586C26.4873 21.6783 26.2625 22.0873 26.0167 22.4837C25.8801 22.7128 25.9552 23.0091 26.1846 23.1456C26.4083 23.2788 26.6975 23.2109 26.8384 22.9921C27.1014 22.5672 27.3423 22.129 27.56 21.6792C27.6764 21.4392 27.576 21.1504 27.3358 21.0341Z" fill="#B1C918"/>
<path d="M25.9079 23.5454C25.699 23.3794 25.395 23.4141 25.2288 23.6228C25.2259 23.6265 25.2231 23.6302 25.2203 23.6338V23.6329C24.9351 24.0024 24.6311 24.357 24.3092 24.6952C24.1252 24.8885 24.1329 25.1943 24.3264 25.3782C24.5199 25.5621 24.826 25.5544 25.0101 25.3611C25.3542 24.9987 25.6798 24.6192 25.9854 24.2239C26.1515 24.0152 26.1169 23.7114 25.9079 23.5454Z" fill="#B1C918"/>
<path d="M28.5248 15.4028C28.2622 15.3894 28.0384 15.5913 28.0251 15.8536C28.0248 15.8585 28.0246 15.8634 28.0245 15.8683C28.0082 16.3343 27.9676 16.7991 27.9032 17.2609C27.8668 17.5247 28.051 17.7682 28.315 17.8051C28.3374 17.8084 28.36 17.81 28.3827 17.8099C28.6235 17.8096 28.8274 17.632 28.8607 17.3937C28.9295 16.899 28.9729 16.4012 28.9907 15.9021C28.9999 15.6357 28.7914 15.4122 28.5248 15.4028Z" fill="#B1C918"/>
<path d="M23.2967 25.6556V25.6571C22.9409 25.9604 22.5699 26.2454 22.185 26.5108C21.9649 26.6628 21.9099 26.9643 22.062 27.1842C22.2141 27.404 22.5159 27.459 22.736 27.307C23.1476 27.0215 23.5444 26.7153 23.925 26.3896C24.1278 26.2162 24.1517 25.9114 23.9781 25.7087C23.8047 25.5061 23.4995 25.4823 23.2967 25.6556Z" fill="#B1C918"/>
<path d="M18.4204 28.3249C17.9738 28.4594 17.5205 28.5706 17.0623 28.6581C16.8002 28.7085 16.6285 28.9616 16.679 29.2235C16.7226 29.4505 16.9213 29.6147 17.1527 29.6151C17.1833 29.6153 17.2139 29.6125 17.244 29.6069C17.7352 29.5131 18.2211 29.3937 18.6998 29.2491C18.9533 29.1656 19.0911 28.8926 19.0076 28.6394C18.927 28.395 18.6687 28.2568 18.4204 28.3249Z" fill="#B1C918"/>
<path d="M15.7013 28.848C15.6924 28.8485 15.6836 28.8493 15.6747 28.8503L15.6772 28.8522C15.2905 28.8851 14.8947 28.9005 14.5003 28.9005H14.2794C14.0158 28.9043 13.8004 29.1119 13.7869 29.3752C13.7821 29.6421 13.9945 29.8624 14.2613 29.8672C14.2614 29.8672 14.2614 29.8672 14.2615 29.8672H14.5003C14.9227 29.8672 15.3461 29.8483 15.7569 29.8131C16.0234 29.7977 16.227 29.5692 16.2116 29.3027C16.1962 29.0362 15.9677 28.8326 15.7013 28.848Z" fill="#B1C918"/>
<path d="M20.9955 27.2438H20.996C20.5868 27.4677 20.1665 27.6704 19.7365 27.8512C19.4891 27.9515 19.3699 28.2331 19.4702 28.4802C19.5705 28.7273 19.8524 28.8464 20.0998 28.7462C20.1034 28.7447 20.107 28.7432 20.1105 28.7416C20.5712 28.548 21.0216 28.3307 21.46 28.0907C21.6941 27.9626 21.7799 27.6691 21.6516 27.4352C21.5235 27.2014 21.2297 27.1156 20.9955 27.2438Z" fill="#B1C918"/>
<path d="M14.5002 5.23987C8.8946 5.23987 4.3504 9.77981 4.3504 15.3801C4.3504 20.9805 8.8946 25.5204 14.5002 25.5204C20.1057 25.5204 24.6499 20.9805 24.6499 15.3801C24.6436 9.78247 20.1031 5.24627 14.5002 5.23987ZM22.2333 15.863H23.6586C23.4076 20.5418 19.6667 24.2792 14.9835 24.53V23.1061C14.9835 22.8394 14.7671 22.6232 14.5002 22.6232C14.2333 22.6232 14.0168 22.8394 14.0168 23.1061V24.53C9.33364 24.2792 5.59278 20.5418 5.3417 15.863H6.76701C7.03393 15.863 7.25034 15.6468 7.25034 15.3801C7.25034 15.1135 7.03393 14.8973 6.76701 14.8973H5.3417C5.59278 10.2184 9.33364 6.48109 14.0168 6.23023V7.65422C14.0168 7.92088 14.2333 8.13709 14.5002 8.13709C14.7671 8.13709 14.9835 7.92088 14.9835 7.65422V6.23023C19.6667 6.48109 23.4076 10.2184 23.6586 14.8973H22.2333C21.9664 14.8973 21.75 15.1135 21.75 15.3801C21.75 15.6468 21.9664 15.863 22.2333 15.863Z" fill="#B1C918"/>
<path d="M14.9835 14.0204V9.58571C14.9835 9.31905 14.7671 9.10284 14.5002 9.10284C14.2333 9.10284 14.0168 9.31905 14.0168 9.58571V14.0204C13.6075 14.1665 13.2853 14.4884 13.1391 14.8973H10.6336C10.3667 14.8973 10.1503 15.1135 10.1503 15.3802C10.1503 15.6468 10.3667 15.863 10.6336 15.863H13.1391C13.404 16.6161 14.2297 17.012 14.9835 16.7474C15.7372 16.4828 16.1336 15.6578 15.8687 14.9048C15.7232 14.4911 15.3976 14.1658 14.9835 14.0204ZM14.5002 15.863C14.2333 15.863 14.0168 15.6468 14.0168 15.3802C14.0168 15.1135 14.2333 14.8973 14.5002 14.8973C14.7671 14.8973 14.9835 15.1135 14.9835 15.3802C14.9835 15.6468 14.7671 15.863 14.5002 15.863Z" fill="#B1C918"/>
</g>
<defs>
<clipPath id="clip0">
<rect width="29" height="28.9729" fill="white" transform="translate(0 0.893372)"/>
</clipPath>
</defs>
</svg>
