<svg width="33" height="27" viewBox="0 0 33 27" fill="none" xmlns="http://www.w3.org/2000/svg">
<path d="M15.3212 26.0268C1.86803 14.0683 2.78532 14.8878 2.59988 14.7099C2.59943 14.7096 2.59897 14.7091 2.59852 14.7086C-1.67555 10.607 -0.362497 3.90135 4.24495 1.24924C4.47635 1.11601 4.77188 1.19554 4.90518 1.42659C5.03847 1.65771 4.95894 1.95303 4.72766 2.08621C0.525397 4.50501 -0.53537 10.6411 3.50182 14.2276L15.9639 25.3052C16.2696 25.5769 16.7299 25.5762 17.0351 25.3052L21.0273 21.7565C21.2268 21.5792 21.5323 21.5969 21.7098 21.7963C21.8872 21.9956 21.8695 22.3008 21.67 22.4781L17.6777 26.0268C17.0053 26.6245 15.9922 26.6233 15.3212 26.0268ZM22.6729 20.9401C22.4955 20.7408 22.5133 20.4356 22.7127 20.2583L29.497 14.2277C30.9036 12.9774 31.7621 11.3696 31.9797 9.57791C32.4716 5.52666 29.5363 1.10654 24.5002 1.10654C20.9629 1.10654 17.8691 3.61305 17.1438 7.06645C16.998 7.76058 16.0015 7.76219 15.8552 7.06664C15.0116 3.05035 10.9661 0.304289 6.68696 1.31287C6.42713 1.37385 6.16679 1.21338 6.10543 0.953664C6.04413 0.694081 6.20508 0.433919 6.46497 0.372678C10.7968 -0.648266 15.062 1.74008 16.4995 5.79403C17.0127 4.34659 17.9192 3.04829 19.1192 2.0636C22.5265 -0.732626 27.6515 -0.475104 30.6849 2.78852C32.37 4.60154 33.2464 7.16839 32.9395 9.69421C32.6931 11.723 31.725 13.5402 30.1397 14.9493L23.3554 20.9798C23.1559 21.1572 22.8503 21.1394 22.6729 20.9401Z" fill="#B1C918"/>
</svg>
