<svg width="15" height="15" viewBox="0 0 15 15" fill="none" xmlns="http://www.w3.org/2000/svg">
<path d="M7.49999 0C4.44458 0 1.95892 2.48566 1.95892 5.54107C1.95892 6.54694 2.41003 7.62875 2.42894 7.67438C2.57463 8.02021 2.86212 8.55737 3.06942 8.87223L6.86864 14.6287C7.02411 14.8647 7.25423 15 7.49999 15C7.74575 15 7.97587 14.8647 8.13135 14.6291L11.9309 8.87223C12.1385 8.55737 12.4257 8.02021 12.5714 7.67438C12.5903 7.62907 13.0411 6.54726 13.0411 5.54107C13.0411 2.48566 10.5554 0 7.49999 0ZM11.9703 7.42145C11.8403 7.73142 11.5727 8.23109 11.3866 8.51336L7.58702 14.2702C7.51205 14.384 7.48826 14.384 7.41329 14.2702L3.61375 8.51336C3.42763 8.23109 3.16003 7.73109 3.02998 7.42112C3.02444 7.40776 2.61081 6.41199 2.61081 5.54107C2.61081 2.84518 4.8041 0.65189 7.49999 0.65189C10.1959 0.65189 12.3892 2.84518 12.3892 5.54107C12.3892 6.4133 11.9746 7.41167 11.9703 7.42145Z" fill="#282828"/>
<path d="M7.49998 2.60889C5.88231 2.60889 4.56647 3.92505 4.56647 5.5424C4.56647 7.15974 5.88231 8.4759 7.49998 8.4759C9.11764 8.4759 10.4335 7.15974 10.4335 5.5424C10.4335 3.92505 9.11764 2.60889 7.49998 2.60889ZM7.49998 7.82401C6.24215 7.82401 5.21836 6.80054 5.21836 5.5424C5.21836 4.28425 6.24215 3.26078 7.49998 3.26078C8.7578 3.26078 9.78159 4.28425 9.78159 5.5424C9.78159 6.80054 8.7578 7.82401 7.49998 7.82401Z" fill="#282828"/>
</svg>
