<?xml version="1.0" encoding="utf-8"?>
<!-- Generator: Adobe Illustrator 24.1.3, SVG Export Plug-In . SVG Version: 6.00 Build 0)  -->
<svg version="1.1" id="Layer_1" xmlns="http://www.w3.org/2000/svg" xmlns:xlink="http://www.w3.org/1999/xlink" x="0px" y="0px"
	 viewBox="0 0 32 32" style="enable-background:new 0 0 32 32;" xml:space="preserve">
<style type="text/css">
	.st0{fill:none;stroke:#FFFFFF;stroke-width:2;stroke-miterlimit:10;}
	.st1{fill:none;stroke:#FFFFFF;stroke-width:2;stroke-linecap:round;stroke-miterlimit:10;}
	.st2{fill:#FFFFFF;}
</style>
<g id="m-account">
	<circle class="st0" cx="16" cy="11.3" r="4.3"/>
	<path class="st1" d="M7.5,25.9v-5.8c0-2.5,2-4.5,4.5-4.5H20c2.5,0,4.5,2,4.5,4.5v5.8"/>
	<line class="st1" x1="19.5" y1="28.3" x2="19.5" y2="21.1"/>
	<line class="st1" x1="12.1" y1="21.1" x2="12.1" y2="28.3"/>
	<g>
		<path class="st2" d="M16,4c6.6,0,12,5.4,12,12s-5.4,12-12,12S4,22.6,4,16S9.4,4,16,4 M16,2C8.3,2,2,8.3,2,16s6.3,14,14,14
			s14-6.3,14-14S23.7,2,16,2L16,2z"/>
	</g>
</g>
</svg>
