<svg width="13" height="13" viewBox="0 0 13 13" fill="none" xmlns="http://www.w3.org/2000/svg">
<g clip-path="url(#clip0)">
<path d="M12.6589 10.0293L10.0276 8.27458C9.69372 8.05369 9.24612 8.12637 8.99926 8.4416L8.2328 9.42707C8.1343 9.55695 7.95525 9.59462 7.81275 9.51546L7.66696 9.43509C7.18364 9.17165 6.58228 8.84368 5.37064 7.63161C4.159 6.41954 3.83036 5.81772 3.56692 5.33529L3.48698 5.18949C3.40673 5.04702 3.4437 4.86721 3.57363 4.76792L4.55843 4.00169C4.87354 3.75481 4.94632 3.30734 4.72568 2.97332L2.97094 0.342076C2.74482 0.00194277 2.29116 -0.100163 1.9411 0.110268L0.840805 0.771215C0.495087 0.974463 0.241446 1.30363 0.13307 1.68974C-0.263143 3.13339 0.034924 5.6249 3.70516 9.29556C6.62475 12.2149 8.79825 13 10.2922 13C10.636 13.0015 10.9784 12.9568 11.3104 12.867C11.6965 12.7588 12.0258 12.5051 12.2289 12.1593L12.8905 11.0596C13.1012 10.7095 12.9992 10.2556 12.6589 10.0293ZM12.5172 10.8374L11.8571 11.9377C11.7113 12.1873 11.4745 12.3708 11.1964 12.4498C9.86363 12.8157 7.53525 12.5126 4.01168 8.98904C0.488105 5.46547 0.185062 3.1373 0.550963 1.80436C0.630069 1.52592 0.813819 1.28883 1.06373 1.14275L2.16402 0.482668C2.31591 0.391276 2.51281 0.435576 2.61093 0.583175L3.56413 2.01426L4.36417 3.21419C4.45998 3.35908 4.4285 3.55326 4.29182 3.66047L3.30678 4.42669C3.00702 4.65591 2.92141 5.07066 3.10597 5.39982L3.18419 5.54194C3.46106 6.04973 3.80528 6.68143 5.06198 7.93793C6.31868 9.1944 6.95018 9.53864 7.45774 9.81549L7.60006 9.89391C7.9292 10.0784 8.34397 9.99287 8.57319 9.6931L9.33942 8.70806C9.44665 8.57145 9.64076 8.54 9.78569 8.63571L12.4167 10.3904C12.5644 10.4885 12.6087 10.6855 12.5172 10.8374Z" fill="#282828"/>
<path d="M7.36622 2.16763C9.39923 2.16989 11.0467 3.81742 11.049 5.85042C11.049 5.97007 11.146 6.06705 11.2656 6.06705C11.3853 6.06705 11.4823 5.97007 11.4823 5.85042C11.4798 3.57822 9.63842 1.73686 7.36622 1.73438C7.24658 1.73438 7.1496 1.83135 7.1496 1.951C7.1496 2.07065 7.24658 2.16763 7.36622 2.16763Z" fill="#282828"/>
<path d="M7.36622 3.46743C8.68167 3.46898 9.74766 4.53497 9.74921 5.85042C9.74921 5.97007 9.84621 6.06705 9.96584 6.06705C10.0855 6.06705 10.1825 5.97007 10.1825 5.85042C10.1807 4.29578 8.92084 3.03596 7.36622 3.03418C7.24658 3.03418 7.1496 3.13116 7.1496 3.25081C7.1496 3.37045 7.24658 3.46743 7.36622 3.46743Z" fill="#282828"/>
<path d="M7.36622 4.76724C7.96413 4.76795 8.44867 5.25248 8.4494 5.85042C8.4494 5.97007 8.54641 6.06704 8.66603 6.06704C8.78565 6.06704 8.88266 5.97007 8.88266 5.85042C8.88169 5.01331 8.20333 4.33492 7.36622 4.33398C7.24658 4.33398 7.1496 4.43096 7.1496 4.55061C7.1496 4.67026 7.24658 4.76724 7.36622 4.76724Z" fill="#282828"/>
</g>
<defs>
<clipPath id="clip0">
<rect width="13" height="13" fill="white"/>
</clipPath>
</defs>
</svg>
