<svg width="29" height="30" viewBox="0 0 29 30" fill="none" xmlns="http://www.w3.org/2000/svg">
<path d="M14.5002 5.23987C8.8946 5.23987 4.3504 9.77981 4.3504 15.3801C4.3504 20.9805 8.8946 25.5204 14.5002 25.5204C20.1057 25.5204 24.6499 20.9805 24.6499 15.3801C24.6436 9.78247 20.1031 5.24627 14.5002 5.23987ZM22.2333 15.863H23.6586C23.4076 20.5418 19.6667 24.2792 14.9835 24.53V23.1061C14.9835 22.8394 14.7671 22.6232 14.5002 22.6232C14.2333 22.6232 14.0168 22.8394 14.0168 23.1061V24.53C9.33364 24.2792 5.59278 20.5418 5.3417 15.863H6.76701C7.03393 15.863 7.25034 15.6468 7.25034 15.3801C7.25034 15.1135 7.03393 14.8973 6.76701 14.8973H5.3417C5.59278 10.2184 9.33364 6.48109 14.0168 6.23023V7.65422C14.0168 7.92088 14.2333 8.13709 14.5002 8.13709C14.7671 8.13709 14.9835 7.92088 14.9835 7.65422V6.23023C19.6667 6.48109 23.4076 10.2184 23.6586 14.8973H22.2333C21.9664 14.8973 21.75 15.1135 21.75 15.3801C21.75 15.6468 21.9664 15.863 22.2333 15.863Z" fill="#B1C918"/>
<path d="M14.9835 14.0204V9.58571C14.9835 9.31905 14.7671 9.10284 14.5002 9.10284C14.2333 9.10284 14.0168 9.31905 14.0168 9.58571V14.0204C13.6075 14.1665 13.2853 14.4884 13.1391 14.8973H10.6336C10.3667 14.8973 10.1503 15.1135 10.1503 15.3802C10.1503 15.6468 10.3667 15.863 10.6336 15.863H13.1391C13.404 16.6161 14.2297 17.012 14.9835 16.7474C15.7372 16.4828 16.1336 15.6578 15.8687 14.9048C15.7232 14.4911 15.3976 14.1658 14.9835 14.0204ZM14.5002 15.863C14.2333 15.863 14.0168 15.6468 14.0168 15.3802C14.0168 15.1135 14.2333 14.8973 14.5002 14.8973C14.7671 14.8973 14.9835 15.1135 14.9835 15.3802C14.9835 15.6468 14.7671 15.863 14.5002 15.863Z" fill="#B1C918"/>
</svg>
