<svg width="82" height="82" viewBox="0 0 82 82" fill="none" xmlns="http://www.w3.org/2000/svg">
<g clip-path="url(#clip0)">
<path d="M65.1553 9.71942L80.1034 26.4786C80.9926 27.4756 80.9906 28.9814 80.0991 29.9762L66.795 44.8185L55.7782 22.5588L65.1553 9.71942Z" fill="#E1EF89"/>
<path d="M80.1035 26.4786L65.1554 9.71942L62.9301 12.7664L77.7541 29.5331C78.3577 30.2099 78.5494 31.1208 78.3323 31.9475L80.0993 29.9762C80.9908 28.9814 80.9926 27.4754 80.1035 26.4786Z" fill="#9FB41C"/>
<path d="M63.1642 9.55432L51.2119 4.8266H41.0829H30.9539L19.0014 9.55432V72.336C19.0014 72.336 24.8748 78.0756 41.0827 78.0849C57.2907 78.0756 63.1641 72.336 63.1641 72.336V9.55432H63.1642Z" fill="#B4D8E9"/>
<path d="M31.2935 4.8266C30.946 5.86046 30.755 6.96614 30.755 8.11708C30.755 13.8209 35.3789 18.445 41.083 18.445C46.787 18.445 51.4109 13.8211 51.4109 8.11708C51.4109 6.96614 51.2199 5.86046 50.8724 4.8266H41.0831H31.2935Z" fill="#83C5E5"/>
<path d="M16.8449 9.71942L1.89661 26.4786C1.00738 27.4756 1.00935 28.9814 1.90088 29.9762L15.205 44.8185L26.2218 22.5588L16.8449 9.71942Z" fill="#E1EF89"/>
<path d="M34.5739 47.1829L34.6051 37.5897L26.5746 4.58325L16.8448 9.71943L15.21 73.5796C15.207 73.6939 15.2746 73.7983 15.3802 73.8426L30.8916 80.3307C31.059 80.4008 31.2475 80.2937 31.2731 80.1141L34.5416 57.1949L34.558 52.1187" fill="#B1C918"/>
<path d="M34.5579 52.1185L34.574 47.1829L34.5579 52.1185Z" fill="#B1C918"/>
<path d="M30.2186 1.75829L20.574 8.21644L21.9919 16.7256L25.7169 17.236L23.6537 22.2017L34.6051 37.5899L30.9977 14.5911L31.2374 2.31515C31.2479 1.78584 30.6584 1.4638 30.2186 1.75829Z" fill="#B1C918"/>
<path d="M47.3951 37.5899L55.4255 4.5834L65.1552 9.71959L66.7901 73.5797C66.793 73.694 66.7255 73.7985 66.6199 73.8427L51.1085 80.3309C50.9411 80.4009 50.7525 80.2938 50.7269 80.1143L47.4584 57.195L47.3951 37.5899Z" fill="#B1C918"/>
<path d="M65.1554 9.71944L60.2371 7.12323L61.7495 75.8798L66.6202 73.8424C66.7258 73.7983 66.7933 73.6939 66.7904 73.5794L65.1554 9.71944Z" fill="#9FB41C"/>
<path d="M51.7814 1.75829L61.4261 8.21644L60.0082 16.7256L56.2832 17.236L58.3463 22.2017L47.395 37.5899L51.0022 14.5911L50.7625 2.31515C50.7523 1.78584 51.3417 1.4638 51.7814 1.75829Z" fill="#B1C918"/>
<path d="M30.0276 47.1988L27.6447 55.48L21.6644 49.2757L30.0276 47.1988L27.6447 55.48L21.6644 49.2757L30.0276 47.1988Z" fill="#83C5E5"/>
<path d="M26.8343 71.9821L19.4312 68.4242L26.214 63.7919L26.8343 71.9821L19.4312 68.4242L26.214 63.7919L26.8343 71.9821Z" fill="#83C5E5"/>
<path d="M28.3808 36.6311L22.5656 41.7042L21.0798 34.1313L28.3808 36.6311L22.5656 41.7042L21.0798 34.1313L28.3808 36.6311Z" fill="#83C5E5"/>
<path d="M52.1381 47.1988L54.521 55.48L60.5013 49.2757L52.1381 47.1988L54.521 55.48L60.5013 49.2757L52.1381 47.1988Z" fill="#83C5E5"/>
<path d="M55.3314 71.9821L62.7345 68.4242L55.9517 63.7919L55.3314 71.9821L62.7345 68.4242L55.9517 63.7919L55.3314 71.9821Z" fill="#83C5E5"/>
<path d="M53.7849 36.6311L59.6003 41.7042L61.0859 34.1313L53.7849 36.6311L59.6003 41.7042L61.0859 34.1313L53.7849 36.6311Z" fill="#83C5E5"/>
<path d="M15.495 62.4414L21.6621 58.7482L15.6749 55.4179L15.495 62.4414Z" fill="#83C5E5"/>
<path d="M65.6322 55.8954L60.5036 58.7482L65.7569 61.8942" fill="#83C5E5"/>
<path d="M81.0211 25.6599L66.073 8.90087C66.073 8.90087 66.0709 8.89989 66.0706 8.89989C65.9718 8.78953 65.8523 8.69541 65.7139 8.62507C65.7077 8.62195 65.7013 8.61933 65.6951 8.61621C65.6711 8.60457 65.6475 8.59227 65.6226 8.5821L62.1639 7.16094C62.0999 7.1347 52.4654 0.736568 52.4654 0.736568C51.8797 0.34434 51.1316 0.310726 50.5135 0.648678C49.8949 0.98663 49.5191 1.63433 49.5327 2.33663L49.5547 3.59694H32.4425L32.467 2.33909C32.4808 1.63433 32.105 0.98663 31.4866 0.648678C30.868 0.310562 30.1199 0.344504 29.5344 0.736568L19.9958 7.12371L16.3849 8.57899C16.204 8.65196 16.051 8.76379 15.9292 8.90005C15.9289 8.90022 15.9267 8.9012 15.9267 8.9012L0.978809 25.6599C-0.328725 27.1258 -0.325938 29.3343 0.985204 30.7969L14.2893 45.6393C14.4042 45.7675 14.5405 45.865 14.6876 45.9331L13.9805 73.5486C13.9648 74.1743 14.3277 74.7349 14.9057 74.9771L30.417 81.4653C30.6054 81.544 30.803 81.5832 31 81.5832C31.2564 81.5832 31.5117 81.5168 31.7429 81.3854C32.1517 81.1532 32.4242 80.7531 32.4907 80.2878L32.7105 78.7456C35.3232 79.1203 38.1342 79.3133 41.0838 79.3149C43.9713 79.3133 46.7258 79.1293 49.2933 78.7699L49.5098 80.2879C49.576 80.7535 49.8487 81.1537 50.2576 81.3859C50.4889 81.5173 50.744 81.5835 51.0003 81.5835C51.1972 81.5835 51.3948 81.5443 51.5832 81.4656L67.0952 74.9773C67.6728 74.7354 68.0355 74.1748 68.0197 73.5486L67.6573 59.3918L67.5572 55.4777C67.5572 55.4776 67.5572 55.4774 67.5572 55.4772L67.3128 45.9336C67.4597 45.8655 67.596 45.768 67.7111 45.6397L72.4338 40.3711C72.8871 39.8652 72.8447 39.0878 72.3388 38.6344C71.8331 38.1812 71.0557 38.2237 70.6022 38.7294L67.2249 42.4972L66.4705 13.0414L79.1856 27.297C79.6586 27.8272 79.6577 28.6261 79.1833 29.155L74.0027 34.9348C73.5493 35.4405 73.5918 36.2181 74.0976 36.6715C74.3324 36.8819 74.6258 36.9855 74.918 36.9855C75.2554 36.9855 75.5914 36.8476 75.8343 36.5765L81.0149 30.7967C82.3259 29.3343 82.3287 27.1258 81.0211 25.6599ZM60.0827 8.79691L58.944 15.6301L56.1163 16.0175C55.7385 16.0694 55.406 16.2935 55.2164 16.6244C55.0267 16.9553 55.0014 17.3556 55.1477 17.7078L56.9491 22.0439L49.3968 32.6564L52.1866 14.4831C52.1971 14.4142 52.2019 14.3447 52.2008 14.2751L52.0114 3.3923L60.0827 8.79691ZM49.5977 6.0564L49.6855 11.1075C49.6687 11.1429 49.6531 11.1793 49.6395 11.2169C48.3395 14.8046 44.9009 17.215 41.0828 17.215C37.0746 17.215 33.5827 14.6462 32.3934 10.8228C32.3703 10.7487 32.3403 10.6789 32.3052 10.6128L32.3942 6.05624H49.5977V6.0564ZM30.9029 2.78019C30.9022 2.78068 30.9014 2.78117 30.9008 2.78166L30.9029 2.78019ZM29.9864 3.39378L29.7682 14.567C29.7667 14.6388 29.7716 14.7107 29.7828 14.7817L32.5815 32.6256L25.051 22.0439L26.8525 17.7078C26.999 17.3556 26.9736 16.9553 26.784 16.6244C26.5943 16.2935 26.2617 16.0694 25.884 16.0175L23.0562 15.6301L21.9176 8.79691L29.9864 3.39378ZM16.8522 57.48L19.2028 58.7876L16.7815 60.2376L16.8522 57.48ZM2.81664 29.1552C2.34242 28.6262 2.34144 27.8273 2.81434 27.2972L15.5294 13.0417L14.7753 42.4968L2.81664 29.1552ZM41.0836 76.8551C38.2504 76.8535 35.5557 76.6689 33.0577 76.3106L35.759 57.3684C35.767 57.3121 35.7711 57.2556 35.7713 57.1987L35.7877 52.1225C35.7898 51.4433 35.241 50.8909 34.5618 50.8887C34.5605 50.8887 34.559 50.8887 34.5577 50.8887C33.8803 50.8887 33.3302 51.4367 33.3281 52.1146L33.3118 57.1054L30.2293 78.7207L16.4557 72.9594L16.7073 63.1327C16.7622 63.1099 16.8165 63.0835 16.8691 63.0519L22.2939 59.8032C22.6709 59.5774 22.8986 59.1678 22.8916 58.7284C22.8845 58.2891 22.6436 57.8869 22.2596 57.6734L16.9231 54.7049L18.0533 10.558L19.6126 9.92965L20.7786 16.9274C20.8671 17.4587 21.291 17.8706 21.8248 17.9438L23.9687 18.2376L22.5179 21.7294C22.355 22.121 22.4057 22.5688 22.6515 22.9143L33.3737 37.9806L33.3438 47.1786C33.3417 47.8578 33.8903 48.4103 34.5697 48.4124H34.5738C35.2512 48.4124 35.8013 47.8644 35.8036 47.1865L35.8346 37.5935C35.8346 37.585 35.8336 37.5766 35.8334 37.5681C35.833 37.5405 35.8318 37.513 35.8295 37.4851C35.828 37.4686 35.8259 37.4522 35.8239 37.4358C35.8225 37.4235 35.8216 37.4113 35.8198 37.3989L32.432 15.7981C34.5715 18.2155 37.6801 19.675 41.0829 19.675C44.3042 19.675 47.3117 18.3229 49.453 16.08L46.1796 37.4033C46.1778 37.4149 46.1773 37.4264 46.1758 37.4381C46.1739 37.4543 46.1719 37.4705 46.1704 37.4869C46.1681 37.514 46.1671 37.5409 46.1666 37.5676C46.1665 37.5765 46.1653 37.585 46.1653 37.5938L46.2288 57.1987C46.229 57.2554 46.2331 57.3121 46.2411 57.3684L48.946 76.3347C46.4928 76.6779 43.8546 76.8535 41.0836 76.8551ZM51.7708 78.7207L48.6881 57.1055L48.6263 37.981L59.3484 22.9146C59.5944 22.5692 59.6449 22.1213 59.482 21.7298L58.0312 18.2379L60.1752 17.9441C60.7087 17.8709 61.1328 17.459 61.2213 16.9278L62.3903 9.91292L63.9463 10.5523L65.079 54.7959L59.9056 57.6734C59.5216 57.8869 59.2807 58.2891 59.2736 58.7284C59.2666 59.1677 59.4945 59.5774 59.8715 59.8032L65.2902 63.0483L65.544 72.9594L51.7708 78.7207ZM65.2159 60.1367L62.9629 58.7876L65.1502 57.571L65.2159 60.1367Z" fill="black"/>
<path d="M29.7313 46.0052L21.3679 48.0823C20.9416 48.1882 20.604 48.5136 20.4825 48.9358C20.4501 49.048 20.4344 49.1624 20.4346 49.2759C20.4346 49.5899 20.5549 49.897 20.7789 50.1294L26.7594 56.3337C26.9942 56.5772 27.3151 56.71 27.6449 56.71C27.7436 56.71 27.8431 56.6982 27.9412 56.6738C28.3675 56.5678 28.7051 56.2425 28.8266 55.8203L31.2095 47.5391C31.2418 47.4269 31.2576 47.3125 31.2576 47.1988C31.2576 46.885 31.1372 46.5778 30.9132 46.3455C30.6082 46.029 30.1573 45.8995 29.7313 46.0052ZM27.0519 53.093L24.0281 49.9561L28.2568 48.9058L27.0519 53.093Z" fill="black"/>
<path d="M27.4404 63.6989C27.4073 63.2608 27.1428 62.8736 26.7468 62.6834C26.3508 62.4931 25.8835 62.5286 25.5204 62.7762L18.7376 67.4087C18.4006 67.6388 18.2014 68.0197 18.2014 68.4237C18.2014 68.4547 18.2026 68.4858 18.2049 68.517C18.238 68.9551 18.5025 69.3423 18.8985 69.5325L26.3016 73.0904C26.4707 73.1718 26.6528 73.2118 26.8342 73.2118C27.0777 73.2118 27.3199 73.1396 27.5278 72.9974C27.8648 72.7674 28.064 72.3865 28.064 71.9824C28.064 71.9515 28.0629 71.9203 28.0606 71.889L27.4404 63.6989ZM21.8838 68.2384L25.1485 66.0087L25.4471 69.951L21.8838 68.2384Z" fill="black"/>
<path d="M22.1671 42.8676C22.2973 42.9122 22.4318 42.9338 22.5653 42.9338C22.8583 42.9338 23.1464 42.8291 23.3738 42.6308L29.189 37.5579C29.4596 37.3218 29.6106 36.9824 29.6105 36.6308C29.6105 36.5523 29.6029 36.4731 29.5875 36.3944C29.5029 35.9633 29.1948 35.6099 28.7789 35.4676L21.478 32.9678C21.0624 32.8253 20.6022 32.9158 20.2713 33.2046C20.0007 33.4407 19.8497 33.7801 19.8499 34.1317C19.8499 34.2102 19.8574 34.2894 19.8728 34.3681L21.3586 41.9408C21.4434 42.3721 21.7515 42.7253 22.1671 42.8676ZM25.9673 37.1047L23.3624 39.3771L22.6968 35.9849L25.9673 37.1047Z" fill="black"/>
<path d="M54.521 56.7098C54.8508 56.7098 55.1718 56.577 55.4065 56.3335L61.3868 50.1292C61.6108 49.8968 61.7312 49.5897 61.7312 49.2757C61.7312 49.1622 61.7154 49.0476 61.6833 48.9356C61.5618 48.5134 61.2241 48.1881 60.7978 48.0821L52.4346 46.0051C52.0088 45.899 51.5577 46.0287 51.2528 46.3451C51.0288 46.5775 50.9083 46.8846 50.9083 47.1986C50.9083 47.3121 50.9241 47.4267 50.9562 47.5387L53.3391 55.8199C53.4606 56.2422 53.7982 56.5677 54.2246 56.6734C54.3228 56.698 54.4221 56.7098 54.521 56.7098ZM58.1376 49.9559L55.114 53.0929L53.9091 48.9058L58.1376 49.9559Z" fill="black"/>
<path d="M63.4279 67.4087L56.6451 62.7763C56.2824 62.5285 55.8149 62.4931 55.4188 62.6835C55.0228 62.8738 54.7584 63.2608 54.7253 63.6989L54.105 71.8892C54.1026 71.9203 54.1016 71.9515 54.1016 71.9825C54.1017 72.3865 54.3008 72.7674 54.6379 72.9976C54.8457 73.1396 55.088 73.2119 55.3315 73.2119C55.5131 73.2119 55.6951 73.1718 55.8641 73.0906L63.2672 69.5327C63.6632 69.3423 63.9276 68.9552 63.9607 68.5172C63.9632 68.486 63.9643 68.4549 63.9643 68.4237C63.9641 68.0197 63.7651 67.6388 63.4279 67.4087ZM56.7184 69.951L57.0169 66.0087L60.2818 68.2384L56.7184 69.951Z" fill="black"/>
<path d="M52.9764 37.5579L58.7918 42.6308C59.0194 42.8292 59.3076 42.9338 59.6005 42.9338C59.7341 42.9338 59.8686 42.912 59.9988 42.8676C60.4145 42.7252 60.7226 42.372 60.8072 41.9408L62.293 34.3681C62.3085 34.2894 62.3161 34.2102 62.3161 34.1317C62.3162 33.7801 62.1654 33.4407 61.8948 33.2045C61.5634 32.9158 61.1035 32.8256 60.688 32.9678L53.387 35.4676C52.9713 35.6099 52.6632 35.9633 52.5786 36.3943C52.563 36.4731 52.5555 36.5523 52.5555 36.6308C52.555 36.9824 52.7058 37.3218 52.9764 37.5579ZM59.4691 35.9849L58.8036 39.377L56.1985 37.1047L59.4691 35.9849Z" fill="black"/>
</g>
<defs>
<clipPath id="clip0">
<rect width="82" height="82" fill="white"/>
</clipPath>
</defs>
</svg>
