<svg width="31" height="31" viewBox="0 0 31 31" fill="none" xmlns="http://www.w3.org/2000/svg">
<circle cx="15.5" cy="15.5" r="15.5" fill="url(#paint0_linear)"/>
<path d="M15.5002 6.00916C11.6091 6.00916 7.91398 5.66329 6.50261 9.28262C5.91963 10.7775 6.00429 12.7188 6.00429 15.4987C6.00429 17.938 5.92606 20.2306 6.50261 21.7136C7.91077 25.3351 11.6358 24.9882 15.4981 24.9882C19.2242 24.9882 23.0661 25.3758 24.4946 21.7136C25.0787 20.2038 24.993 18.2913 24.993 15.4987C24.993 11.7915 25.1977 9.39827 23.3983 7.60145C21.5765 5.78108 19.1128 6.00916 15.4959 6.00916H15.5002ZM14.6493 7.71924C22.7661 7.70639 23.7991 6.80477 23.229 19.33C23.0265 23.76 19.6508 23.2738 15.5013 23.2738C7.93541 23.2738 7.71787 23.0575 7.71787 15.4944C7.71787 7.84345 8.31799 7.72352 14.6493 7.7171V7.71924ZM20.5692 9.2944C19.9401 9.2944 19.43 9.8041 19.43 10.4327C19.43 11.0612 19.9401 11.5709 20.5692 11.5709C21.1982 11.5709 21.7083 11.0612 21.7083 10.4327C21.7083 9.8041 21.1982 9.2944 20.5692 9.2944ZM15.5002 10.6254C12.8072 10.6254 10.6242 12.8077 10.6242 15.4987C10.6242 18.1896 12.8072 20.3708 15.5002 20.3708C18.1933 20.3708 20.3752 18.1896 20.3752 15.4987C20.3752 12.8077 18.1933 10.6254 15.5002 10.6254ZM15.5002 12.3355C19.6851 12.3355 19.6904 18.6618 15.5002 18.6618C11.3165 18.6618 11.3101 12.3355 15.5002 12.3355Z" fill="white"/>
<defs>
<linearGradient id="paint0_linear" x1="15.5" y1="0" x2="15.5" y2="31" gradientUnits="userSpaceOnUse">
<stop offset="0.129845" stop-color="#DD2E82"/>
<stop offset="0.55887" stop-color="#872ECD"/>
<stop offset="0.869792" stop-color="#DDCC2E"/>
</linearGradient>
</defs>
</svg>
